<?xml version="1.0" encoding="utf-8"?>
<!-- Generator: Adobe Illustrator 18.1.1, SVG Export Plug-In . SVG Version: 6.00 Build 0)  -->
<svg version="1.1" id="Calque_1" xmlns="http://www.w3.org/2000/svg" xmlns:xlink="http://www.w3.org/1999/xlink" x="0px" y="0px"
	 width="500px" height="500px" viewBox="0 0 500 500" enable-background="new 0 0 500 500" xml:space="preserve">
<symbol  id="ƒÂ_xF8FF_Â_x201A_Ó" viewBox="-29.1 -38.3 58.2 76.5">
	<polygon fill="#80BB2C" points="7.9,-38.3 1.9,-12.6 -0.7,-12.6 -4.6,-38.3 	"/>
	<path fill="#95C12E" d="M29.1-1c0-16.1-13-29.1-29.1-29.1c-16.1,0-29.1,13-29.1,29.1C-29.1,15,0,38.3,0,38.3S29.1,15,29.1-1z"/>
	<path fill="#86BD2D" d="M16.1-2.2C16.1-11,8.9-18.3,0-18.3c-8.9,0-16.1,7.2-16.1,16.1S0,19.6,0,19.6S16.1,6.7,16.1-2.2z"/>
</symbol>
<g>
	<defs>
		<path id="SVGID_1_" d="M419.2,211.7c0-89.1-72.2-161.4-161.4-161.4S96.5,122.6,96.5,211.7c0,34.5,10.8,66.4,29.2,92.6H390
			C408.4,278.1,419.2,246.2,419.2,211.7z"/>
	</defs>
	<linearGradient id="SVGID_2_" gradientUnits="userSpaceOnUse" x1="257.8694" y1="238" x2="257.8694" y2="57.8223">
		<stop  offset="0" style="stop-color:#FFFFFF"/>
		<stop  offset="1" style="stop-color:#36A9E1;stop-opacity:0.2"/>
	</linearGradient>
	<use xlink:href="#SVGID_1_"  overflow="visible" fill="url(#SVGID_2_)"/>
	<clipPath id="SVGID_3_">
		<use xlink:href="#SVGID_1_"  overflow="visible"/>
	</clipPath>
	<g clip-path="url(#SVGID_3_)">
		<path fill="#BED1D0" d="M380.5,304.4c0.2-2.1,0.4-4.3,0.4-6.5c0-31.2-25.3-56.6-56.6-56.6c-31.2,0-56.6,25.3-56.6,56.6
			c0,2.2,0.1,4.4,0.4,6.5H380.5z"/>
		<polygon fill="#038F74" points="213.2,254.6 165.2,254.6 165.2,228.2 213.2,211.8 		"/>
		<rect x="190.1" y="151.3" fill="#BAD5D3" width="58.7" height="130.2"/>
		<g>
			<rect x="190.6" y="172.5" fill="#98B2B0" width="58.1" height="2.4"/>
			<path fill="#98B2B0" d="M202,159.1c0-1.2-1-2.2-2.2-2.2c-1.2,0-2.2,1-2.2,2.2v7.8h4.5V159.1z"/>
			<path fill="#98B2B0" d="M203.4,181.5c-1.9,0-3.4,1.5-3.4,3.4v11.9h6.9v-11.9C206.8,183,205.3,181.5,203.4,181.5z"/>
			<path fill="#98B2B0" d="M218.9,181.5c-1.9,0-3.4,1.5-3.4,3.4v11.9h6.9v-11.9C222.4,183,220.8,181.5,218.9,181.5z"/>
			<path fill="#98B2B0" d="M234.2,181.5c-1.9,0-3.4,1.5-3.4,3.4v11.9h6.9v-11.9C237.6,183,236.1,181.5,234.2,181.5z"/>
			<path fill="#98B2B0" d="M203.4,204.1c-1.9,0-3.4,1.5-3.4,3.4v11.9h6.9v-11.9C206.8,205.7,205.3,204.1,203.4,204.1z"/>
			<path fill="#98B2B0" d="M218.9,204.1c-1.9,0-3.4,1.5-3.4,3.4v11.9h6.9v-11.9C222.4,205.7,220.8,204.1,218.9,204.1z"/>
			<path fill="#98B2B0" d="M234.2,204.1c-1.9,0-3.4,1.5-3.4,3.4v11.9h6.9v-11.9C237.6,205.7,236.1,204.1,234.2,204.1z"/>
			<path fill="#98B2B0" d="M214.9,159.1c0-1.2-1-2.2-2.2-2.2c-1.2,0-2.2,1-2.2,2.2v7.8h4.5V159.1z"/>
			<path fill="#98B2B0" d="M227.7,159.1c0-1.2-1-2.2-2.2-2.2c-1.2,0-2.2,1-2.2,2.2v7.8h4.5V159.1z"/>
			<path fill="#98B2B0" d="M240.5,159.1c0-1.2-1-2.2-2.2-2.2c-1.2,0-2.2,1-2.2,2.2v7.8h4.5V159.1z"/>
		</g>
		<path fill="#FFCD07" d="M226.7,131.1l-1.9,0v-15.7c0-0.6-0.5-1.2-1.2-1.2h-2.1V97.8c0-1.1-0.9-1.9-1.9-1.9h-0.3
			c-1.1,0-1.9,0.9-1.9,1.9v16.3h-2.4c-0.6,0-1.2,0.5-1.2,1.2v15.4l-0.3,0c-11.1,2.1-20.2,10.1-23.7,20.7h59
			C245.4,141.4,237.1,133.6,226.7,131.1z"/>
		<rect x="241.6" y="227" fill="#5C8E8B" width="115.9" height="76.8"/>
		<rect x="292.1" y="237" fill="#99D3D9" width="61.3" height="62.3"/>
		<polygon fill="#A6D8DE" points="322.8,299.3 292.1,299.3 292.1,237 353.3,237 		"/>
		<rect x="145.8" y="240.6" fill="#99D3D9" width="139.4" height="19.9"/>
		<rect x="145.8" y="260.6" fill="#71A9A8" width="139.4" height="43"/>
		<rect x="148.9" y="263.3" fill="#70C5CD" width="133.2" height="37.6"/>
		<rect x="148.9" y="263.3" fill="#90D0D2" width="55.1" height="37.6"/>
		<rect x="236.4" y="225.6" fill="#71A9A8" width="126.3" height="5.9"/>
		<polygon fill="#99D3D9" points="353.5,226.2 356.8,226.2 356.8,220.7 359.2,220.7 359.2,197.3 254.1,197.3 254.1,220.7 
			257.2,220.7 257.2,226.2 260.5,226.2 260.5,220.7 353.5,220.7 		"/>
		
			<use xlink:href="#ƒÂ_xF8FF_Â_x201A_Ó"  width="58.2" height="76.5" id="XMLID_4_" x="-29.1" y="-38.3" transform="matrix(0.6477 0 0 -0.6477 146.7142 278.2831)" overflow="visible"/>
		
			<use xlink:href="#ƒÂ_xF8FF_Â_x201A_Ó"  width="58.2" height="76.5" id="XMLID_3_" x="-29.1" y="-38.3" transform="matrix(0.4749 0 0 -0.4749 184.1819 284.8949)" overflow="visible"/>
		<g>
			<path fill="#EE97A7" d="M216.4,298c0,0,0.3,0.5,1.3,0.9c1,0.4,2.8,0.6,2.8,0.6l5.6-0.6l4.2,0.7l0.4,0l19.9-0.1c0,0,0,0,0,0
				l11.7-0.2c0,0,0.8,0,2-0.2c1.2-0.2,2.2-1.6,2.2-1.6l0.5-3.5l-1.2-1.2l-0.3,0.1c0,0-0.3-0.4-0.9-0.9c-0.4-0.7-1-1.6-2-2.6
				c-2-2.1-6.3-5.3-11.8-6.6c-5.5-1.3-11-0.4-13.9,0.7c-3,1.2-6.8,5.2-6.8,5.2s-4.6,0.7-7.5,1.2c-2.6,0.5-3.8,2.1-4,2.4
				c-0.8,0.8-1.3,1.5-1.3,1.5l-0.9,0.6C215.9,295.5,216.4,298,216.4,298z M248.4,288.9l0.8-5.6c0,0,2.6,0.3,5,2
				c2.4,1.7,2.3,3.5,2.3,3.5L248.4,288.9z M231.8,289.5c0,0,1.8-3.3,5.3-5.1c4-2,10.2-1.4,10.2-1.4l-0.7,5.9L231.8,289.5z"/>
			<path fill="#D98B9C" d="M230.3,299.5l-0.9-0.1l-7.6,0.1l-1.3-0.1c0,0-0.9-3.6,1.8-5.5c2.7-1.9,5.9-0.4,6.9,1.2
				C230.2,296.6,230.3,299.5,230.3,299.5z"/>
			<path fill="#D98B9C" d="M262.6,299.1l-0.9,0.2l-7.6,0.1l-1.3-0.1c0,0-0.9-3.6,1.8-5.5c2.7-1.9,5.9-0.4,6.9,1.2
				C262.6,296.6,262.6,299.1,262.6,299.1z"/>
			<path fill="#C58291" d="M261.4,290.7c-0.4,0.6,0.3,2,2.2,2.3c1.9,0.3,2.1-0.2,2.1-0.2S262.5,289.1,261.4,290.7z"/>
			<path fill="#F3A1A9" d="M251.2,297.9c0,0.2-0.1,0.3-0.3,0.3h-18.4c-0.2,0-0.3-0.1-0.3-0.3l0,0c0-0.2,0.1-0.3,0.3-0.3h18.4
				C251.1,297.6,251.2,297.7,251.2,297.9L251.2,297.9z"/>
			<path fill="#C58291" d="M220.2,293.1c-0.6,0.7-1.5,1.2-1.9,0.9c-0.4-0.3,0-1.3,0.5-1.8c0.5-0.5,1.6-1.1,1.9-0.8
				C221,291.7,220.8,292.4,220.2,293.1z"/>
			<circle fill="#EE97A7" cx="257.8" cy="297.8" r="3.3"/>
			<path fill="#C58291" d="M261,298.4l0-0.7l-2.5,0.1c0,0,0,0,0,0c0-0.1,0-0.1,0-0.2l2.2-1.3l-0.4-0.6l-1.9,1.6
				c-0.1-0.1-0.1-0.1-0.2-0.2l1-2.2l-0.7-0.2l-0.6,2.4c0,0-0.1,0-0.1,0c0,0,0,0-0.1,0l-0.3-2.5l-0.7,0.2l0.8,2.4
				c-0.1,0-0.2,0.1-0.2,0.2l-1.7-1.8l-0.4,0.5l2.1,1.4c0,0,0,0.1,0,0.1l-2.5-0.3l0,0.7l2.5-0.1c0,0.1,0,0.1,0.1,0.2l-2.2,1.3
				l0.4,0.6l1.9-1.7c0.1,0.1,0.1,0.1,0.2,0.2l-1.1,2.3l0.7,0.2l0.6-2.5c0,0,0.1,0,0.1,0c0,0,0.1,0,0.1,0l0.7,2.5l0.6-0.3l-1.2-2.3
				c0,0,0.1,0,0.1-0.1l2,1.7l0.4-0.6l-2.2-1.3c0,0,0-0.1,0.1-0.1L261,298.4z"/>
			<path fill="#C58291" d="M257.7,293.6c-2.3,0-4.2,1.9-4.2,4.2c0,2.3,1.9,4.2,4.2,4.2c2.3,0,4.2-1.9,4.2-4.2
				C261.9,295.5,260,293.6,257.7,293.6z M257.7,300.8c-1.7,0-3-1.4-3-3c0-1.7,1.4-3,3-3s3,1.4,3,3
				C260.7,299.5,259.4,300.8,257.7,300.8z"/>
			<circle fill="#EE97A7" cx="225.4" cy="297.8" r="3.3"/>
			<path fill="#C58291" d="M228.6,298.4l0-0.7l-2.5,0.1c0,0,0,0,0,0c0-0.1,0-0.1,0-0.2l2.2-1.3l-0.4-0.6l-1.9,1.6
				c-0.1-0.1-0.1-0.1-0.2-0.2l1-2.2l-0.7-0.2l-0.6,2.4c0,0-0.1,0-0.1,0c0,0,0,0-0.1,0l-0.3-2.5l-0.7,0.2l0.8,2.4
				c-0.1,0-0.2,0.1-0.2,0.2l-1.7-1.8l-0.4,0.5l2.1,1.4c0,0,0,0.1,0,0.1l-2.5-0.3l0,0.7l2.5-0.1c0,0.1,0,0.1,0.1,0.2l-2.2,1.3
				l0.4,0.6l1.9-1.7c0.1,0.1,0.1,0.1,0.2,0.2l-1.1,2.3l0.7,0.2l0.6-2.5c0,0,0.1,0,0.1,0c0,0,0.1,0,0.1,0l0.7,2.5l0.6-0.3l-1.2-2.3
				c0,0,0.1,0,0.1-0.1l2,1.7l0.4-0.6l-2.2-1.3c0,0,0-0.1,0.1-0.1L228.6,298.4z"/>
			<path fill="#C58291" d="M225.4,293.6c-2.3,0-4.2,1.9-4.2,4.2c0,2.3,1.9,4.2,4.2,4.2c2.3,0,4.2-1.9,4.2-4.2
				C229.6,295.5,227.7,293.6,225.4,293.6z M225.4,300.8c-1.7,0-3-1.4-3-3c0-1.7,1.4-3,3-3c1.7,0,3,1.4,3,3
				C228.4,299.5,227,300.8,225.4,300.8z"/>
		</g>
		<path fill="#5C8E8B" d="M291.9,298.7c0-33.7,28.3-61.1,61.9-61.5l0.1-1.4h-62.4v63.5h0.4C291.9,299.1,291.9,298.9,291.9,298.7z"/>
	</g>
</g>
<text transform="matrix(1 0 0 1 50.0901 376.6191)" fill="#FFCD07" font-family="'OleoScriptSwashCaps-Regular'" font-size="87.1726">Geofun</text>
<text transform="matrix(1 0 0 1 127.8586 408.4355)"><tspan x="0" y="0" fill="#5C8E8B" font-family="'OleoScriptSwashCaps-Regular'" font-size="25.4253">Parc</tspan><tspan x="46.6" y="0" fill="#5C8E8B" font-family="'OleoScriptSwashCaps-Regular'" font-size="25.4253">o</tspan><tspan x="56.8" y="0" fill="#5C8E8B" font-family="'OleoScriptSwashCaps-Regular'" font-size="25.4253">u</tspan><tspan x="69.5" y="0" fill="#5C8E8B" font-family="'OleoScriptSwashCaps-Regular'" font-size="25.4253">r</tspan><tspan x="79.1" y="0" fill="#5C8E8B" font-family="'OleoScriptSwashCaps-Regular'" font-size="25.4253">s ludique et pédagogique !</tspan></text>
</svg>
