<?xml version="1.0" encoding="utf-8"?>
<!-- Generator: Adobe Illustrator 18.1.1, SVG Export Plug-In . SVG Version: 6.00 Build 0)  -->
<svg version="1.1" id="Calque_1" xmlns="http://www.w3.org/2000/svg" xmlns:xlink="http://www.w3.org/1999/xlink" x="0px" y="0px"
	 width="500px" height="500px" viewBox="0 0 500 500" enable-background="new 0 0 500 500" xml:space="preserve">
<symbol  id="ƒÂ_xF8FF_Â_x201A_Ó" viewBox="-29.1 -38.3 58.2 76.5">
	<polygon fill="#80BB2C" points="7.9,-38.3 1.9,-12.6 -0.7,-12.6 -4.6,-38.3 	"/>
	<path fill="#95C12E" d="M29.1-1c0-16.1-13-29.1-29.1-29.1c-16.1,0-29.1,13-29.1,29.1C-29.1,15,0,38.3,0,38.3S29.1,15,29.1-1z"/>
	<path fill="#86BD2D" d="M16.1-2.2C16.1-11,8.9-18.3,0-18.3c-8.9,0-16.1,7.2-16.1,16.1S0,19.6,0,19.6S16.1,6.7,16.1-2.2z"/>
</symbol>
<g>
	<defs>
		<path id="SVGID_1_" d="M419.2,211.7c0-89.1-72.2-161.4-161.4-161.4S96.5,122.6,96.5,211.7c0,34.5,10.8,66.4,29.2,92.6H390
			C408.4,278.1,419.2,246.2,419.2,211.7z"/>
	</defs>
	<linearGradient id="SVGID_2_" gradientUnits="userSpaceOnUse" x1="257.8694" y1="238" x2="257.8694" y2="57.8223">
		<stop  offset="0" style="stop-color:#FFFFFF"/>
		<stop  offset="1" style="stop-color:#36A9E1;stop-opacity:0.2"/>
	</linearGradient>
	<use xlink:href="#SVGID_1_"  overflow="visible" fill="url(#SVGID_2_)"/>
	<clipPath id="SVGID_3_">
		<use xlink:href="#SVGID_1_"  overflow="visible"/>
	</clipPath>
	<g clip-path="url(#SVGID_3_)">
		<path fill="#BED1D0" d="M380.5,304.4c0.2-2.1,0.4-4.3,0.4-6.5c0-31.2-25.3-56.6-56.6-56.6c-31.2,0-56.6,25.3-56.6,56.6
			c0,2.2,0.1,4.4,0.4,6.5H380.5z"/>
		<polygon fill="#038F74" points="213.2,254.6 165.2,254.6 165.2,228.2 213.2,211.8 		"/>
		<rect x="190.1" y="151.3" fill="#BAD5D3" width="58.7" height="130.2"/>
		<g>
			<rect x="190.6" y="172.5" fill="#98B2B0" width="58.1" height="2.4"/>
			<path fill="#98B2B0" d="M202,159.1c0-1.2-1-2.2-2.2-2.2c-1.2,0-2.2,1-2.2,2.2v7.8h4.5V159.1z"/>
			<path fill="#98B2B0" d="M203.4,181.5c-1.9,0-3.4,1.5-3.4,3.4v11.9h6.9v-11.9C206.8,183,205.3,181.5,203.4,181.5z"/>
			<path fill="#98B2B0" d="M218.9,181.5c-1.9,0-3.4,1.5-3.4,3.4v11.9h6.9v-11.9C222.4,183,220.8,181.5,218.9,181.5z"/>
			<path fill="#98B2B0" d="M234.2,181.5c-1.9,0-3.4,1.5-3.4,3.4v11.9h6.9v-11.9C237.6,183,236.1,181.5,234.2,181.5z"/>
			<path fill="#98B2B0" d="M203.4,204.1c-1.9,0-3.4,1.5-3.4,3.4v11.9h6.9v-11.9C206.8,205.7,205.3,204.1,203.4,204.1z"/>
			<path fill="#98B2B0" d="M218.9,204.1c-1.9,0-3.4,1.5-3.4,3.4v11.9h6.9v-11.9C222.4,205.7,220.8,204.1,218.9,204.1z"/>
			<path fill="#98B2B0" d="M234.2,204.1c-1.9,0-3.4,1.5-3.4,3.4v11.9h6.9v-11.9C237.6,205.7,236.1,204.1,234.2,204.1z"/>
			<path fill="#98B2B0" d="M214.9,159.1c0-1.2-1-2.2-2.2-2.2c-1.2,0-2.2,1-2.2,2.2v7.8h4.5V159.1z"/>
			<path fill="#98B2B0" d="M227.7,159.1c0-1.2-1-2.2-2.2-2.2c-1.2,0-2.2,1-2.2,2.2v7.8h4.5V159.1z"/>
			<path fill="#98B2B0" d="M240.5,159.1c0-1.2-1-2.2-2.2-2.2c-1.2,0-2.2,1-2.2,2.2v7.8h4.5V159.1z"/>
		</g>
		<path fill="#FFCD07" d="M226.7,131.1l-1.9,0v-15.7c0-0.6-0.5-1.2-1.2-1.2h-2.1V97.8c0-1.1-0.9-1.9-1.9-1.9h-0.3
			c-1.1,0-1.9,0.9-1.9,1.9v16.3h-2.4c-0.6,0-1.2,0.5-1.2,1.2v15.4l-0.3,0c-11.1,2.1-20.2,10.1-23.7,20.7h59
			C245.4,141.4,237.1,133.6,226.7,131.1z"/>
		<rect x="241.6" y="227" fill="#5C8E8B" width="115.9" height="76.8"/>
		<rect x="292.1" y="237" fill="#99D3D9" width="61.3" height="62.3"/>
		<polygon fill="#A6D8DE" points="322.8,299.3 292.1,299.3 292.1,237 353.3,237 		"/>
		<rect x="145.8" y="240.6" fill="#99D3D9" width="139.4" height="19.9"/>
		<rect x="145.8" y="260.6" fill="#71A9A8" width="139.4" height="43"/>
		<rect x="148.9" y="263.3" fill="#70C5CD" width="133.2" height="37.6"/>
		<rect x="148.9" y="263.3" fill="#90D0D2" width="55.1" height="37.6"/>
		<rect x="236.4" y="225.6" fill="#71A9A8" width="126.3" height="5.9"/>
		<polygon fill="#99D3D9" points="353.5,226.2 356.8,226.2 356.8,220.7 359.2,220.7 359.2,197.3 254.1,197.3 254.1,220.7 
			257.2,220.7 257.2,226.2 260.5,226.2 260.5,220.7 353.5,220.7 		"/>
		
			<use xlink:href="#ƒÂ_xF8FF_Â_x201A_Ó"  width="58.2" height="76.5" id="XMLID_4_" x="-29.1" y="-38.3" transform="matrix(0.6477 0 0 -0.6477 146.7142 278.2831)" overflow="visible"/>
		
			<use xlink:href="#ƒÂ_xF8FF_Â_x201A_Ó"  width="58.2" height="76.5" id="XMLID_3_" x="-29.1" y="-38.3" transform="matrix(0.4749 0 0 -0.4749 184.1819 284.8949)" overflow="visible"/>
		<g>
			<path fill="#EE97A7" d="M216.4,298c0,0,0.3,0.5,1.3,0.9c1,0.4,2.8,0.6,2.8,0.6l5.6-0.6l4.2,0.7l0.4,0l19.9-0.1c0,0,0,0,0,0
				l11.7-0.2c0,0,0.8,0,2-0.2c1.2-0.2,2.2-1.6,2.2-1.6l0.5-3.5l-1.2-1.2l-0.3,0.1c0,0-0.3-0.4-0.9-0.9c-0.4-0.7-1-1.6-2-2.6
				c-2-2.1-6.3-5.3-11.8-6.6c-5.5-1.3-11-0.4-13.9,0.7c-3,1.2-6.8,5.2-6.8,5.2s-4.6,0.7-7.5,1.2c-2.6,0.5-3.8,2.1-4,2.4
				c-0.8,0.8-1.3,1.5-1.3,1.5l-0.9,0.6C215.9,295.5,216.4,298,216.4,298z M248.4,288.9l0.8-5.6c0,0,2.6,0.3,5,2
				c2.4,1.7,2.3,3.5,2.3,3.5L248.4,288.9z M231.8,289.5c0,0,1.8-3.3,5.3-5.1c4-2,10.2-1.4,10.2-1.4l-0.7,5.9L231.8,289.5z"/>
			<path fill="#D98B9C" d="M230.3,299.5l-0.9-0.1l-7.6,0.1l-1.3-0.1c0,0-0.9-3.6,1.8-5.5c2.7-1.9,5.9-0.4,6.9,1.2
				C230.2,296.6,230.3,299.5,230.3,299.5z"/>
			<path fill="#D98B9C" d="M262.6,299.1l-0.9,0.2l-7.6,0.1l-1.3-0.1c0,0-0.9-3.6,1.8-5.5c2.7-1.9,5.9-0.4,6.9,1.2
				C262.6,296.6,262.6,299.1,262.6,299.1z"/>
			<path fill="#C58291" d="M261.4,290.7c-0.4,0.6,0.3,2,2.2,2.3c1.9,0.3,2.1-0.2,2.1-0.2S262.5,289.1,261.4,290.7z"/>
			<path fill="#F3A1A9" d="M251.2,297.9c0,0.2-0.1,0.3-0.3,0.3h-18.4c-0.2,0-0.3-0.1-0.3-0.3l0,0c0-0.2,0.1-0.3,0.3-0.3h18.4
				C251.1,297.6,251.2,297.7,251.2,297.9L251.2,297.9z"/>
			<path fill="#C58291" d="M220.2,293.1c-0.6,0.7-1.5,1.2-1.9,0.9c-0.4-0.3,0-1.3,0.5-1.8c0.5-0.5,1.6-1.1,1.9-0.8
				C221,291.7,220.8,292.4,220.2,293.1z"/>
			<circle fill="#EE97A7" cx="257.8" cy="297.8" r="3.3"/>
			<path fill="#C58291" d="M261,298.4l0-0.7l-2.5,0.1c0,0,0,0,0,0c0-0.1,0-0.1,0-0.2l2.2-1.3l-0.4-0.6l-1.9,1.6
				c-0.1-0.1-0.1-0.1-0.2-0.2l1-2.2l-0.7-0.2l-0.6,2.4c0,0-0.1,0-0.1,0c0,0,0,0-0.1,0l-0.3-2.5l-0.7,0.2l0.8,2.4
				c-0.1,0-0.2,0.1-0.2,0.2l-1.7-1.8l-0.4,0.5l2.1,1.4c0,0,0,0.1,0,0.1l-2.5-0.3l0,0.7l2.5-0.1c0,0.1,0,0.1,0.1,0.2l-2.2,1.3
				l0.4,0.6l1.9-1.7c0.1,0.1,0.1,0.1,0.2,0.2l-1.1,2.3l0.7,0.2l0.6-2.5c0,0,0.1,0,0.1,0c0,0,0.1,0,0.1,0l0.7,2.5l0.6-0.3l-1.2-2.3
				c0,0,0.1,0,0.1-0.1l2,1.7l0.4-0.6l-2.2-1.3c0,0,0-0.1,0.1-0.1L261,298.4z"/>
			<path fill="#C58291" d="M257.7,293.6c-2.3,0-4.2,1.9-4.2,4.2c0,2.3,1.9,4.2,4.2,4.2c2.3,0,4.2-1.9,4.2-4.2
				C261.9,295.5,260,293.6,257.7,293.6z M257.7,300.8c-1.7,0-3-1.4-3-3c0-1.7,1.4-3,3-3s3,1.4,3,3
				C260.7,299.5,259.4,300.8,257.7,300.8z"/>
			<circle fill="#EE97A7" cx="225.4" cy="297.8" r="3.3"/>
			<path fill="#C58291" d="M228.6,298.4l0-0.7l-2.5,0.1c0,0,0,0,0,0c0-0.1,0-0.1,0-0.2l2.2-1.3l-0.4-0.6l-1.9,1.6
				c-0.1-0.1-0.1-0.1-0.2-0.2l1-2.2l-0.7-0.2l-0.6,2.4c0,0-0.1,0-0.1,0c0,0,0,0-0.1,0l-0.3-2.5l-0.7,0.2l0.8,2.4
				c-0.1,0-0.2,0.1-0.2,0.2l-1.7-1.8l-0.4,0.5l2.1,1.4c0,0,0,0.1,0,0.1l-2.5-0.3l0,0.7l2.5-0.1c0,0.1,0,0.1,0.1,0.2l-2.2,1.3
				l0.4,0.6l1.9-1.7c0.1,0.1,0.1,0.1,0.2,0.2l-1.1,2.3l0.7,0.2l0.6-2.5c0,0,0.1,0,0.1,0c0,0,0.1,0,0.1,0l0.7,2.5l0.6-0.3l-1.2-2.3
				c0,0,0.1,0,0.1-0.1l2,1.7l0.4-0.6l-2.2-1.3c0,0,0-0.1,0.1-0.1L228.6,298.4z"/>
			<path fill="#C58291" d="M225.4,293.6c-2.3,0-4.2,1.9-4.2,4.2c0,2.3,1.9,4.2,4.2,4.2c2.3,0,4.2-1.9,4.2-4.2
				C229.6,295.5,227.7,293.6,225.4,293.6z M225.4,300.8c-1.7,0-3-1.4-3-3c0-1.7,1.4-3,3-3c1.7,0,3,1.4,3,3
				C228.4,299.5,227,300.8,225.4,300.8z"/>
		</g>
		<path fill="#5C8E8B" d="M291.9,298.7c0-33.7,28.3-61.1,61.9-61.5l0.1-1.4h-62.4v63.5h0.4C291.9,299.1,291.9,298.9,291.9,298.7z"/>
	</g>
</g>
<g>
	<path fill="#FFCD07" d="M115.1,406.5c-2,1.5-4.1,2.3-6.3,2.3c-2.2,0-4.2-0.3-6.1-1c-1.9-0.6-3.8-1.6-5.9-3
		c-2.1-1.4-3.8-2.6-5.2-3.7c-1.4-1.1-3.3-2.6-5.7-4.6c-2.4-2-4.1-3.4-5.1-4.1c-3.5,3.4-7.6,5.1-12,5.1c-2.8,0-5.2-0.7-7-2.2
		c-1.8-1.5-2.7-3.4-2.7-5.8c0-2.4,1-4.5,2.9-6.2c1.9-1.7,4.3-2.6,7.1-2.6s5.5,0.5,8.2,1.4c1.5-3.4,2.6-7.7,3.3-12.7
		c-2.5,1.6-5.3,2.4-8.5,2.4c-5.3,0-9.6-2-12.9-5.9s-5-9-5-15.3s1.2-12.1,3.7-17.5c2.4-5.4,5.9-9.8,10.5-13.3
		c4.6-3.5,9.6-5.2,15.1-5.2c1.9,0,3.7,0.3,5.5,0.9c4.4-2.7,8.7-4.1,13.1-4.1c4.4,0,7.7,1,9.9,3.1c-0.5,2.3-1.3,4.1-2.4,5.4
		c-2.3-2-4.9-3.1-7.8-3.1c-2.8,0-5.5,0.6-8,1.7c2.7,2.8,4,6.6,4,11.2c0,3.4-0.5,6.6-1.6,9.8c-1.1,3.2-2.8,5.9-5.1,8.1
		c-2.3,2.2-4.9,3.4-7.7,3.4c-2.8,0-5-1.1-6.4-3.2c-1.5-2.1-2.2-4.9-2.2-8.3c0-6.8,2.7-13.1,8.1-18.9c-4.3,0.3-7.8,3-10.6,8.2
		c-2.8,5.2-4.1,11-4.1,17.5c0,6.5,0.8,10.9,2.5,13.4c1.7,2.4,3.8,3.7,6.4,3.7c4.2,0,8.1-2.8,11.5-8.5l7,1.7
		c-2.3,12.7-5.6,22.6-9.9,29.6c0.9,0.5,3,1.7,6.4,3.8c3.4,2.1,5.9,3.5,7.4,4.3c1.5,0.8,3.7,1.6,6.4,2.5c2.7,0.9,5.3,1.4,7.6,1.4
		l3.9-0.3c1,1.4,1.7,2.5,2,3.4C118.6,403.3,117.1,405,115.1,406.5z M68.5,391c2.1,0,4.1-1,5.9-3.1c-2.2-1.2-4.1-1.7-5.8-1.7
		c-2.5,0-3.7,0.8-3.7,2.5c0,0.8,0.4,1.3,1.1,1.7C66.7,390.8,67.6,391,68.5,391z M83.8,345.8c2.4,0,4.3-1.5,5.8-4.6s2.2-6.6,2.2-10.6
		c0-4-1.1-6.9-3.3-8.6c-2.6,2.2-4.6,4.9-6.1,8c-1.5,3.1-2.2,6-2.2,8.7C80.3,343.5,81.4,345.8,83.8,345.8z"/>
	<path fill="#FFCD07" d="M100,361.5c0-7.3,2.2-13,6.6-17.2c4.4-4.2,9.4-6.3,15-6.3c3.4,0,6.2,0.8,8.5,2.5c2.2,1.7,3.3,3.9,3.3,6.8
		c0,2.8-0.7,5.2-2.1,7.1c-1.4,1.9-3.2,3.4-5.2,4.4c-4.1,2-7.9,3.3-11.3,3.8l-2.1,0.3c0.4,5.5,2.6,8.2,6.7,8.2c1.4,0,2.9-0.3,4.4-1
		c1.6-0.7,2.8-1.4,3.7-2.1l1.3-1l2.1,2.8c-0.5,0.6-1.4,1.5-2.8,2.5c-1.4,1-2.7,1.9-3.9,2.6c-3.4,1.9-7.1,2.8-11.1,2.8
		c-4,0-7.2-1.4-9.5-4.3C101.2,370.5,100,366.6,100,361.5z M119.6,354.9c1.7-2,2.6-4.5,2.6-7.7c0-3.1-0.9-4.7-2.8-4.7
		c-2.2,0-3.9,1.9-5.1,5.6c-1.2,3.7-1.8,7.2-1.8,10.5C115.5,358.1,117.8,356.9,119.6,354.9z"/>
	<path fill="#FFCD07" d="M147.4,377.7c-4,0-7.1-1.4-9.4-4.2c-2.3-2.8-3.4-6.8-3.4-11.8c0-6.5,1.7-12,5.2-16.6c3.5-4.6,8.2-7,14.3-7
		l3.1,0.2c1-0.5,2.1-0.8,3.3-0.8c4.6,0,6.9,4.3,6.9,13c2.4-0.1,4.8-0.4,7.2-1l1.4-0.3l0.5,3.4c-1.9,0.8-4.5,1.5-7.8,2.2l-1.7,0.3
		c-1.1,6.1-3.3,11.4-6.7,15.9C157,375.4,152.7,377.7,147.4,377.7z M152.1,370.2c2.4,0,4.6-1.6,6.6-4.7c1.9-3.1,3.3-6.5,4.1-9.9
		c-6.2,0-9.3-2.3-9.3-7c0-1.9,0.4-3.6,1.1-5.2l0.4-0.9c-0.2-0.1-0.5-0.2-0.9-0.2s-0.6,0.1-0.8,0.2c-1.5,0.9-2.8,3.1-4.1,6.5
		c-1.3,3.4-1.9,7.4-1.9,11.8C147.3,367,148.9,370.2,152.1,370.2z"/>
	<path fill="#FFCD07" d="M196.3,339c-0.1,1.3-0.6,3-1.6,5.1c-2.2-0.2-4.4-0.3-6.5-0.3h-0.3c-1.2,14.4-2.4,25-3.4,31.8
		c-1,6.9-2.4,11.7-4.1,14.4c-2.1-0.1-4.3-0.3-6.5-0.8c-2.2-0.5-3.8-1-4.6-1.5c1.4-4.3,2.8-10.8,4.2-19.4c1.4-8.7,2.3-16.6,2.7-24
		c-1.6,0.1-3.4,0.3-5.4,0.6c-0.2-0.8-0.3-1.5-0.3-2.3c0-0.8,0.1-1.9,0.3-3.4h5.6c0.1-5.1,0.4-8.9,0.8-11.5c0.7-4.6,2.3-8.3,4.8-10.9
		c2.5-2.6,5.8-4,9.8-4c2.6,0,4.6,0.6,6.1,1.7c1.5,1.1,2.2,2.9,2.2,5.4c0,2.4-1.1,5.6-3.3,9.5c-2.2,3.9-5.1,7.2-8.7,9.9H196.3z
		 M193.7,327.2c1.3-2.3,1.9-4.4,1.9-6.3c0-1.9-0.6-2.8-1.8-2.8c-2.6,0-4.2,2.9-4.9,8.8c-0.2,2-0.4,4.2-0.5,6.7
		C190.6,331.6,192.4,329.5,193.7,327.2z"/>
	<path fill="#FFCD07" d="M197.1,370c0-2.5,0.8-6.7,2.3-12.7c1.5-6,2.3-9.7,2.3-11.1c0-1.4-1-3.2-3.1-5.4l0.1-1.1
		c4-0.8,9.2-1.2,15.6-1.2c0.3,0.8,0.4,2.1,0.4,4.1c0,2-0.8,6.2-2.4,12.6c-1.6,6.5-2.4,10.5-2.4,12c0,1.6,0.6,2.4,1.7,2.4
		c1.7,0,3.6-0.6,5.8-1.8c0.2-1.4,0.8-4.1,1.7-8c2.1-9.3,3.1-16,3.1-20c2-0.8,5.7-1.2,11-1.2h1.7c0,2.7-0.8,8.1-2.4,16
		c-1.6,7.9-2.4,12.6-2.4,13.9c0,1.4,0.3,2,0.9,2c0.3,0,2-0.7,5-2.1l1.7,2.8c-5.2,4.3-9.7,6.5-13.6,6.5c-1.9,0-3.4-0.5-4.8-1.6
		c-1.3-1-2-2.4-2.2-4.1c-4.7,3.8-9,5.8-12.8,5.8c-2,0-3.7-0.7-5-2C197.7,374.4,197.1,372.5,197.1,370z"/>
	<path fill="#FFCD07" d="M242.2,376.9h-1.7c0-2.7,0.8-8,2.5-15.7c1.7-7.7,2.5-12.1,2.5-13.2c0-1.9-0.8-4-2.4-6.1l-0.8-1l0.1-1.1
		c3.1-0.9,8.2-1.3,15.1-1.3c0.8,1,1.2,2.8,1.2,5.4c5.1-3.9,9.3-5.8,12.8-5.8c2.1,0,3.8,0.7,5,2.2c1.2,1.5,1.9,3.3,1.9,5.4
		c0,2.2-0.7,5.9-2,11.3c-1.3,5.3-2,8.9-2,10.8c0,1.8,0.2,2.7,0.7,2.7c0.3,0,1.6-0.6,3.7-1.7l1-0.5l1.6,3.1c-0.5,0.5-1.2,1-2.1,1.7
		c-0.9,0.7-2.5,1.6-4.8,2.8s-4.5,1.8-6.3,1.8c-4.2,0-6.4-2.4-6.4-7.2c0-2,0.7-5.8,2-11.2c1.3-5.5,2-9,2-10.5s-0.5-2.4-1.5-2.4
		c-1.7,0-3.7,0.7-6.2,2.2c-0.2,1-0.8,3.6-1.7,7.8c-2,9.1-3.1,15.6-3.1,19.4C251.2,376.5,247.5,376.9,242.2,376.9z"/>
</g>
<g>
	<path fill="#5C8E8B" d="M132.9,395.3c0-0.3,0-0.6-0.1-0.7c-0.1-0.2-0.2-0.4-0.5-0.7l0-0.2c0.9-0.5,2-0.8,3.4-0.8
		c0.5,0,0.9,0,1.2,0.1c0.1,0.2,0.1,0.5,0.1,1.1s-0.4,2.4-1.2,5.7c0.4,0.2,0.8,0.2,1.3,0.2c0.8,0,1.5-0.3,2-0.8s0.9-1.2,1-1.8
		s0.2-1.3,0.2-2.1c0-1.3-0.4-2.3-1.1-2.9c-0.7-0.6-1.9-0.9-3.5-0.9c-2.1,0-3.8,0.4-5.2,1.3s-2.1,1.7-2.1,2.7c0,0.5,0.2,0.9,0.5,1.2
		c0.4,0.3,0.7,0.5,1.1,0.6c-0.1,0.6-0.3,1.2-0.6,1.9c-0.6-0.1-1.3-0.4-1.8-1c-0.6-0.6-0.9-1.4-0.9-2.3c0-1.7,1-3.1,2.9-4.2
		c1.9-1.1,4.2-1.6,6.8-1.6c2.6,0,4.5,0.4,5.8,1.3c1.3,0.9,2,2.2,2,4c0,2.4-0.9,4.1-2.8,5.3c-1,0.7-2.2,1-3.7,1
		c-0.9,0-1.7-0.1-2.3-0.4c-0.7,2.9-1.1,5.2-1.3,7c-1,0.3-2.1,0.4-3.3,0.4c-0.3,0-0.5,0-0.6-0.1c0.1-1.1,0.6-3.3,1.4-6.7
		C132.5,398.5,132.9,396.3,132.9,395.3z"/>
	<path fill="#5C8E8B" d="M151.3,397.9c0,0,0.1-0.3,0.3-0.7c0.8,0,1.9,0.2,3.2,0.7c-0.4,1.4-0.8,2.9-1,4.4c-0.3,1.5-0.4,2.6-0.4,3.3
		s0.1,1,0.2,1c0.1,0,0.5-0.2,1.1-0.5l0.3-0.2l0.5,0.9c-0.2,0.1-0.4,0.3-0.6,0.5c-0.2,0.2-0.7,0.5-1.4,0.8c-0.7,0.3-1.3,0.5-1.8,0.5
		c-1.1,0-1.7-0.5-1.8-1.4c-1.1,1-2.1,1.4-2.9,1.4c-0.9,0-1.6-0.3-2.2-1c-0.6-0.7-0.9-1.7-0.9-3.2c0-2.3,0.5-4.1,1.4-5.4s2.1-2,3.4-2
		C149.5,397.2,150.4,397.4,151.3,397.9z M148.4,406.6c0.4,0,0.9-0.2,1.4-0.5c0.1-2.4,0.5-4.8,1.2-7.1c-0.5-0.2-0.9-0.3-1.3-0.3
		c-0.6,0-1.1,0.6-1.6,1.8c-0.4,1.2-0.6,2.5-0.6,4C147.4,405.9,147.8,406.6,148.4,406.6z"/>
	<path fill="#5C8E8B" d="M156.4,408.5h-0.2c0-0.1-0.1-0.4-0.1-0.9c0-0.5,0.2-1.8,0.7-3.9c0.5-2.1,0.7-3.3,0.7-3.6
		c0-0.5-0.2-1.1-0.7-1.7l-0.2-0.3l0-0.3c0.9-0.3,2.4-0.4,4.4-0.4c0.2,0.4,0.3,1.1,0.3,1.9c0.2-0.3,0.6-0.7,1.2-1.2
		c0.6-0.5,1.2-0.8,1.8-0.8c0.9,0,1.4,0.8,1.4,2.4c-0.1,0.1-0.2,0.2-0.3,0.4c-0.1,0.2-0.4,0.4-0.9,0.7s-0.9,0.5-1.3,0.5
		c0,0-0.2-0.2-0.4-0.7s-0.5-0.7-0.6-0.7c-0.4,0.2-0.8,0.4-1.1,0.8c-0.8,3.5-1.2,5.8-1.2,6.8c0,0.4,0,0.6,0,0.8
		C159.4,408.4,158.2,408.5,156.4,408.5z"/>
	<path fill="#5C8E8B" d="M171,398.4c-0.7,0-1.2,0.6-1.6,1.7c-0.4,1.1-0.6,2.3-0.6,3.6c0,2,0.6,3.1,1.9,3.1c0.4,0,0.8-0.1,1.3-0.3
		c0.5-0.2,0.8-0.4,1.1-0.6l0.4-0.3l0.6,0.8c-0.1,0.2-0.4,0.4-0.8,0.7c-0.4,0.3-0.8,0.6-1.1,0.8c-0.4,0.2-0.8,0.4-1.4,0.6
		c-0.6,0.2-1.1,0.3-1.7,0.3c-1.3,0-2.3-0.4-3-1.3c-0.7-0.9-1-2-1-3.5c0-2,0.6-3.7,1.7-4.9c1.1-1.3,2.5-1.9,4.3-1.9
		c1.1,0,2,0.3,2.7,0.8c0.7,0.5,1,1.2,1,1.9c0,0.8-0.2,1.4-0.7,1.9c-0.4,0-0.9-0.1-1.5-0.3c-0.6-0.2-1-0.4-1.3-0.7l0.4-2.2
		C171.5,398.5,171.3,398.4,171,398.4z"/>
	<path fill="#5C8E8B" d="M178.8,408.7c-1.2,0-2.1-0.4-2.7-1.2c-0.7-0.8-1-2-1-3.4c0-1.9,0.5-3.5,1.5-4.9c1-1.4,2.4-2,4.2-2l0.9,0.1
		c0.3-0.2,0.6-0.2,1-0.2c1.3,0,2,1.3,2,3.8c0.7,0,1.4-0.1,2.1-0.3l0.4-0.1l0.2,1c-0.6,0.2-1.3,0.4-2.3,0.6l-0.5,0.1
		c-0.3,1.8-1,3.3-2,4.6C181.6,408.1,180.4,408.7,178.8,408.7z M180.2,406.6c0.7,0,1.4-0.5,1.9-1.4c0.6-0.9,1-1.9,1.2-2.9
		c-1.8,0-2.7-0.7-2.7-2c0-0.5,0.1-1.1,0.3-1.5l0.1-0.3c-0.1,0-0.2-0.1-0.3-0.1c-0.1,0-0.2,0-0.2,0.1c-0.4,0.3-0.8,0.9-1.2,1.9
		c-0.4,1-0.6,2.1-0.6,3.4C178.8,405.6,179.3,406.6,180.2,406.6z"/>
	<path fill="#5C8E8B" d="M185.6,406.5c0-0.7,0.2-2,0.7-3.7c0.4-1.8,0.7-2.8,0.7-3.2s-0.3-0.9-0.9-1.6l0-0.3c1.2-0.2,2.7-0.4,4.6-0.4
		c0.1,0.2,0.1,0.6,0.1,1.2s-0.2,1.8-0.7,3.7c-0.5,1.9-0.7,3.1-0.7,3.5c0,0.5,0.2,0.7,0.5,0.7c0.5,0,1.1-0.2,1.7-0.5
		c0.1-0.4,0.2-1.2,0.5-2.3c0.6-2.7,0.9-4.7,0.9-5.8c0.6-0.2,1.7-0.4,3.2-0.4h0.5c0,0.8-0.2,2.4-0.7,4.7c-0.5,2.3-0.7,3.7-0.7,4.1
		s0.1,0.6,0.3,0.6c0.1,0,0.6-0.2,1.4-0.6l0.5,0.8c-1.5,1.3-2.8,1.9-4,1.9c-0.5,0-1-0.2-1.4-0.5c-0.4-0.3-0.6-0.7-0.6-1.2
		c-1.4,1.1-2.6,1.7-3.7,1.7c-0.6,0-1.1-0.2-1.5-0.6S185.6,407.2,185.6,406.5z"/>
	<path fill="#5C8E8B" d="M198.6,408.5h-0.2c0-0.1-0.1-0.4-0.1-0.9c0-0.5,0.2-1.8,0.7-3.9c0.5-2.1,0.7-3.3,0.7-3.6
		c0-0.5-0.2-1.1-0.7-1.7l-0.2-0.3l0-0.3c0.9-0.3,2.4-0.4,4.4-0.4c0.2,0.4,0.3,1.1,0.3,1.9c0.2-0.3,0.6-0.7,1.2-1.2
		c0.6-0.5,1.2-0.8,1.8-0.8c0.9,0,1.4,0.8,1.4,2.4c-0.1,0.1-0.2,0.2-0.3,0.4c-0.1,0.2-0.4,0.4-0.9,0.7s-0.9,0.5-1.3,0.5
		c0,0-0.2-0.2-0.4-0.7s-0.5-0.7-0.6-0.7c-0.4,0.2-0.8,0.4-1.1,0.8c-0.8,3.5-1.2,5.8-1.2,6.8c0,0.4,0,0.6,0,0.8
		C201.5,408.4,200.4,408.5,198.6,408.5z"/>
	<path fill="#5C8E8B" d="M215.6,405.1c0,1.1-0.5,1.9-1.4,2.6c-0.9,0.7-2,1-3.2,1s-2.2-0.3-2.9-0.8c-0.7-0.5-1.1-1-1.1-1.3
		c0-0.2,0.3-0.6,0.9-1.2c0.6-0.5,1.1-0.9,1.5-1c0.8,0.6,1.5,1.6,2.1,3c0.6-0.1,0.9-0.3,0.9-0.9c0-0.8-0.7-1.9-2.1-3.3
		c-1.4-1.4-2.1-2.6-2.1-3.4s0.4-1.5,1.1-2c0.8-0.5,1.7-0.7,2.8-0.7c1.1,0,1.9,0.2,2.4,0.6c0.5,0.4,0.8,0.9,0.8,1.6
		c0,0.7-0.5,1.6-1.6,2.7c0.1,0.1,0.3,0.3,0.5,0.5c0.2,0.2,0.4,0.6,0.7,1.1C215.4,404.1,215.6,404.6,215.6,405.1z M214.2,399.3
		c0-0.6-0.4-0.9-1.2-0.9c-0.4,0-0.7,0.1-1,0.2c-0.3,0.2-0.4,0.3-0.4,0.5c0,0.4,0.4,0.9,1.1,1.6l0.4,0.3
		C213.8,400.5,214.2,399.9,214.2,399.3z"/>
	<path fill="#5C8E8B" d="M223.8,408.7c-0.6,0-1.1-0.2-1.4-0.6s-0.6-0.9-0.6-1.6c0-0.7,0.4-2.9,1.3-6.7c0.8-3.8,1.3-6.5,1.3-8.2
		l-0.2-1.1c1.3-0.5,2.6-0.7,3.7-0.7c0.2,0.2,0.3,0.7,0.3,1.2c0,1.4-0.4,4-1.3,7.9c-0.9,3.9-1.3,6.2-1.3,6.8s0.1,1,0.2,1l1.8-0.6
		l0.5,0.9c-0.6,0.5-1.3,0.9-2.1,1.3C225.1,408.5,224.4,408.7,223.8,408.7z"/>
	<path fill="#5C8E8B" d="M228.8,406.5c0-0.7,0.2-2,0.7-3.7c0.4-1.8,0.7-2.8,0.7-3.2s-0.3-0.9-0.9-1.6l0-0.3c1.2-0.2,2.7-0.4,4.6-0.4
		c0.1,0.2,0.1,0.6,0.1,1.2s-0.2,1.8-0.7,3.7c-0.5,1.9-0.7,3.1-0.7,3.5c0,0.5,0.2,0.7,0.5,0.7c0.5,0,1.1-0.2,1.7-0.5
		c0.1-0.4,0.2-1.2,0.5-2.3c0.6-2.7,0.9-4.7,0.9-5.8c0.6-0.2,1.7-0.4,3.2-0.4h0.5c0,0.8-0.2,2.4-0.7,4.7c-0.5,2.3-0.7,3.7-0.7,4.1
		s0.1,0.6,0.3,0.6c0.1,0,0.6-0.2,1.4-0.6l0.5,0.8c-1.5,1.3-2.8,1.9-4,1.9c-0.5,0-1-0.2-1.4-0.5c-0.4-0.3-0.6-0.7-0.6-1.2
		c-1.4,1.1-2.6,1.7-3.7,1.7c-0.6,0-1.1-0.2-1.5-0.6S228.8,407.2,228.8,406.5z"/>
	<path fill="#5C8E8B" d="M253.3,406.9c-1.4,1.2-2.7,1.9-3.8,1.9s-1.7-0.5-1.9-1.6c-0.5,0.5-1.1,0.9-1.7,1.2
		c-0.6,0.3-1.2,0.4-1.7,0.4c-0.8,0-1.5-0.4-2.1-1.1c-0.6-0.7-0.9-1.8-0.9-3.3c0-2.2,0.5-4,1.4-5.3c0.9-1.3,2-1.9,3.2-1.9
		c1.2,0,2.2,0.3,3,0.8c0.5-2.7,0.8-4.9,0.8-6.5l-0.1-1.1c1.3-0.4,2.5-0.7,3.7-0.7c0.1,0.3,0.2,0.6,0.2,1c0,1.2-0.4,3.8-1.1,7.5
		s-1.1,6.4-1.1,7.7c0,0.4,0.1,0.6,0.3,0.6c0.1,0,0.4-0.2,1-0.5l0.3-0.2L253.3,406.9z M247.2,398.7c-0.6,0-1.1,0.6-1.5,1.8
		c-0.4,1.2-0.6,2.3-0.6,3.5c0,1.1,0.1,1.9,0.2,2.2s0.4,0.5,0.7,0.5c0.6,0,1.1-0.2,1.7-0.7c0.1-0.7,0.4-2.9,1.1-6.8
		C248.2,398.8,247.7,398.7,247.2,398.7z"/>
	<path fill="#5C8E8B" d="M259.3,398.7c0,0.7-0.2,1.9-0.7,3.7c-0.5,1.7-0.7,2.9-0.7,3.4c0,0.5,0.1,0.8,0.2,0.8c0.1,0,0.5-0.2,1.2-0.5
		l0.3-0.2l0.4,0.9c-0.2,0.1-0.4,0.3-0.6,0.5c-0.3,0.2-0.7,0.5-1.4,0.8c-0.7,0.3-1.3,0.5-1.9,0.5c-0.6,0-1.1-0.2-1.4-0.5
		c-0.3-0.4-0.5-0.9-0.5-1.5c0-0.6,0.2-1.7,0.6-3.3s0.6-2.6,0.6-3.1c0-0.7-0.2-1.4-0.7-2l-0.2-0.3l0-0.3c0.9-0.3,2.4-0.4,4.4-0.4
		C259.2,397.6,259.3,398,259.3,398.7z M256.4,394.5c-0.3-0.3-0.5-0.8-0.5-1.3c0-0.6,0.2-1.1,0.7-1.5c0.5-0.4,1-0.6,1.6-0.6
		s1.1,0.2,1.4,0.5c0.3,0.3,0.5,0.8,0.5,1.3c0,0.6-0.2,1-0.7,1.5c-0.5,0.4-1,0.6-1.6,0.6C257.2,395,256.7,394.8,256.4,394.5z"/>
	<path fill="#5C8E8B" d="M266.2,414.1c-0.1-0.2-0.2-0.6-0.2-1.3s0.3-2.4,0.9-5.4c-1.1,0.9-2.1,1.3-2.9,1.3c-0.9,0-1.6-0.4-2.2-1.1
		c-0.6-0.7-0.8-1.8-0.8-3.2c0-2.4,0.5-4.2,1.4-5.4s2.1-1.9,3.4-1.9c0.7,0,1.6,0.2,2.6,0.6c0.8-0.3,1.9-0.5,3.3-0.5
		c0.1,0.3,0.1,0.7,0.1,1c0,1.8-0.3,4.4-1,7.8c-0.7,3.3-1,5.8-1,7.3C268.9,413.8,267.7,414,266.2,414.1z M267,398.7
		c-0.6,0-1.2,0.6-1.6,1.7c-0.4,1.1-0.6,2.4-0.6,4c0,1.5,0.3,2.3,1,2.3c0.6,0,1.1-0.2,1.6-0.7c0.6-2.9,0.9-5.2,0.9-7
		C267.7,398.8,267.3,398.7,267,398.7z"/>
	<path fill="#5C8E8B" d="M273.1,406.5c0-0.7,0.2-2,0.7-3.7c0.4-1.8,0.7-2.8,0.7-3.2s-0.3-0.9-0.9-1.6l0-0.3c1.2-0.2,2.7-0.4,4.6-0.4
		c0.1,0.2,0.1,0.6,0.1,1.2s-0.2,1.8-0.7,3.7c-0.5,1.9-0.7,3.1-0.7,3.5c0,0.5,0.2,0.7,0.5,0.7c0.5,0,1.1-0.2,1.7-0.5
		c0.1-0.4,0.2-1.2,0.5-2.3c0.6-2.7,0.9-4.7,0.9-5.8c0.6-0.2,1.7-0.4,3.2-0.4h0.5c0,0.8-0.2,2.4-0.7,4.7s-0.7,3.7-0.7,4.1
		s0.1,0.6,0.3,0.6c0.1,0,0.6-0.2,1.4-0.6l0.5,0.8c-1.5,1.3-2.8,1.9-4,1.9c-0.5,0-1-0.2-1.4-0.5c-0.4-0.3-0.6-0.7-0.6-1.2
		c-1.4,1.1-2.6,1.7-3.7,1.7c-0.6,0-1.1-0.2-1.5-0.6C273.3,407.8,273.1,407.2,273.1,406.5z"/>
	<path fill="#5C8E8B" d="M285.5,404c0-2.1,0.6-3.8,1.9-5c1.3-1.2,2.7-1.8,4.4-1.8c1,0,1.8,0.2,2.5,0.7c0.6,0.5,1,1.1,1,2
		s-0.2,1.5-0.6,2.1c-0.4,0.6-0.9,1-1.5,1.3c-1.2,0.6-2.3,1-3.3,1.1l-0.6,0.1c0.1,1.6,0.8,2.4,2,2.4c0.4,0,0.8-0.1,1.3-0.3
		c0.5-0.2,0.8-0.4,1.1-0.6l0.4-0.3l0.6,0.8c-0.1,0.2-0.4,0.4-0.8,0.7c-0.4,0.3-0.8,0.6-1.1,0.8c-1,0.5-2.1,0.8-3.2,0.8
		c-1.2,0-2.1-0.4-2.8-1.2C285.8,406.7,285.5,405.5,285.5,404z M291.2,402.1c0.5-0.6,0.8-1.3,0.8-2.2s-0.3-1.4-0.8-1.4
		c-0.6,0-1.1,0.5-1.5,1.6c-0.3,1.1-0.5,2.1-0.5,3.1C290,403,290.7,402.7,291.2,402.1z"/>
	<path fill="#5C8E8B" d="M300.7,404c0-2.1,0.6-3.8,1.9-5c1.3-1.2,2.7-1.8,4.4-1.8c1,0,1.8,0.2,2.5,0.7c0.6,0.5,1,1.1,1,2
		s-0.2,1.5-0.6,2.1c-0.4,0.6-0.9,1-1.5,1.3c-1.2,0.6-2.3,1-3.3,1.1l-0.6,0.1c0.1,1.6,0.8,2.4,2,2.4c0.4,0,0.8-0.1,1.3-0.3
		c0.5-0.2,0.8-0.4,1.1-0.6l0.4-0.3l0.6,0.8c-0.1,0.2-0.4,0.4-0.8,0.7c-0.4,0.3-0.8,0.6-1.1,0.8c-1,0.5-2.1,0.8-3.2,0.8
		c-1.2,0-2.1-0.4-2.8-1.2C301,406.7,300.7,405.5,300.7,404z M306.4,402.1c0.5-0.6,0.8-1.3,0.8-2.2s-0.3-1.4-0.8-1.4
		c-0.6,0-1.1,0.5-1.5,1.6c-0.3,1.1-0.5,2.1-0.5,3.1C305.2,403,305.9,402.7,306.4,402.1z"/>
	<path fill="#5C8E8B" d="M318.9,397.5c0,0.4-0.2,0.9-0.4,1.5c-0.6-0.1-1.3-0.1-1.8-0.1h-0.5c-0.8,3.8-1.2,6.1-1.2,7.1
		c0,0.5,0.1,0.7,0.3,0.7s0.8-0.2,1.7-0.6l0.5,0.8c-1.5,1.3-2.9,1.9-4.2,1.9c-0.6,0-1.1-0.2-1.5-0.6c-0.4-0.4-0.6-0.9-0.6-1.5
		c0-0.6,0.1-1.3,0.2-2.1c0.1-0.8,0.3-1.7,0.6-2.9c0.3-1.1,0.4-2,0.6-2.7c-0.6,0.1-1.1,0.1-1.4,0.2c0-0.2-0.1-0.5-0.1-0.8
		s0-0.6,0.1-0.9h1.6c0.1-0.9,0.2-1.8,0.2-2.6l0-0.8V394c1.3-0.5,2.6-0.7,3.7-0.7c0.1,0.3,0.1,0.8,0.1,1.3c0,0.5-0.1,1.5-0.4,2.9
		H318.9z"/>
	<path fill="#5C8E8B" d="M322.8,414.1c-0.1-0.2-0.1-0.7-0.1-1.3s0.3-2.6,1-5.6c0.7-3,1-5.4,1-7c0-0.3-0.1-0.7-0.2-1
		c-0.2-0.4-0.3-0.6-0.5-0.9l-0.2-0.3l0-0.3c0.8-0.3,2.2-0.4,4.2-0.4c0.2,0.4,0.3,0.9,0.4,1.5c1.3-1.1,2.4-1.6,3.3-1.6
		s1.6,0.4,2.1,1.1c0.5,0.7,0.8,1.8,0.8,3.2c0,2.5-0.4,4.3-1.3,5.5c-0.9,1.2-2,1.8-3.4,1.8c-0.7,0-1.3-0.1-1.8-0.3l-0.3-0.1l0.2-1
		c0.2,0,0.3,0.1,0.5,0.1c0.4,0,0.8-0.2,1.2-0.6c0.3-0.4,0.6-0.9,0.8-1.6c0.3-1.3,0.5-2.4,0.5-3.5c0-1.5-0.3-2.3-0.9-2.3
		c-0.5,0-1,0.2-1.6,0.6c-0.1,1.2-0.4,3.3-1,6.2s-0.9,5.4-0.9,7.2C325.4,413.8,324.2,414,322.8,414.1z"/>
	<path fill="#5C8E8B" d="M335.6,404c0-2.1,0.6-3.8,1.9-5c1.3-1.2,2.7-1.8,4.4-1.8c1,0,1.8,0.2,2.5,0.7c0.6,0.5,1,1.1,1,2
		s-0.2,1.5-0.6,2.1c-0.4,0.6-0.9,1-1.5,1.3c-1.2,0.6-2.3,1-3.3,1.1l-0.6,0.1c0.1,1.6,0.8,2.4,2,2.4c0.4,0,0.8-0.1,1.3-0.3
		c0.5-0.2,0.8-0.4,1.1-0.6l0.4-0.3l0.6,0.8c-0.1,0.2-0.4,0.4-0.8,0.7c-0.4,0.3-0.8,0.6-1.1,0.8c-1,0.5-2.1,0.8-3.2,0.8
		c-1.2,0-2.1-0.4-2.8-1.2C335.9,406.7,335.6,405.5,335.6,404z M345.3,392.8c0,0.5-0.3,0.9-0.9,1.1c-0.8,0.4-2.9,1-6.2,1.7l-0.5-1
		c1.6-0.8,3-1.7,4.3-2.5s2.1-1.4,2.4-1.6c0.2,0.2,0.4,0.6,0.6,1.1C345.2,392.1,345.3,392.5,345.3,392.8z M341.2,402.1
		c0.5-0.6,0.8-1.3,0.8-2.2s-0.3-1.4-0.8-1.4c-0.6,0-1.1,0.5-1.5,1.6c-0.3,1.1-0.5,2.1-0.5,3.1C340.1,403,340.7,402.7,341.2,402.1z"
		/>
	<path fill="#5C8E8B" d="M357.9,406.9c-1.4,1.2-2.7,1.9-3.8,1.9c-1.1,0-1.7-0.5-1.9-1.6c-0.5,0.5-1.1,0.9-1.7,1.2
		c-0.6,0.3-1.2,0.4-1.7,0.4c-0.8,0-1.5-0.4-2.1-1.1s-0.9-1.8-0.9-3.3c0-2.2,0.5-4,1.4-5.3c0.9-1.3,2-1.9,3.2-1.9
		c1.2,0,2.2,0.3,3,0.8c0.5-2.7,0.8-4.9,0.8-6.5l-0.1-1.1c1.3-0.4,2.5-0.7,3.7-0.7c0.1,0.3,0.2,0.6,0.2,1c0,1.2-0.4,3.8-1.1,7.5
		c-0.7,3.8-1.1,6.4-1.1,7.7c0,0.4,0.1,0.6,0.3,0.6c0.1,0,0.4-0.2,1-0.5l0.3-0.2L357.9,406.9z M351.7,398.7c-0.6,0-1.1,0.6-1.5,1.8
		c-0.4,1.2-0.6,2.3-0.6,3.5c0,1.1,0.1,1.9,0.2,2.2c0.2,0.3,0.4,0.5,0.7,0.5c0.6,0,1.1-0.2,1.7-0.7c0.1-0.7,0.4-2.9,1.1-6.8
		C352.7,398.8,352.2,398.7,351.7,398.7z"/>
	<path fill="#5C8E8B" d="M366.1,397.9c0,0,0.1-0.3,0.3-0.7c0.8,0,1.9,0.2,3.2,0.7c-0.4,1.4-0.8,2.9-1,4.4s-0.4,2.6-0.4,3.3
		s0.1,1,0.2,1c0.1,0,0.5-0.2,1.1-0.5l0.3-0.2l0.5,0.9c-0.2,0.1-0.4,0.3-0.6,0.5c-0.2,0.2-0.7,0.5-1.4,0.8c-0.7,0.3-1.3,0.5-1.8,0.5
		c-1.1,0-1.7-0.5-1.8-1.4c-1.1,1-2.1,1.4-2.9,1.4s-1.6-0.3-2.2-1s-0.9-1.7-0.9-3.2c0-2.3,0.5-4.1,1.4-5.4c0.9-1.3,2.1-2,3.4-2
		C364.3,397.2,365.3,397.4,366.1,397.9z M363.2,406.6c0.4,0,0.9-0.2,1.4-0.5c0.1-2.4,0.5-4.8,1.2-7.1c-0.5-0.2-0.9-0.3-1.3-0.3
		c-0.6,0-1.1,0.6-1.6,1.8c-0.4,1.2-0.6,2.5-0.6,4C362.3,405.9,362.6,406.6,363.2,406.6z"/>
	<path fill="#5C8E8B" d="M377.3,412.9c-0.6,0.4-1.2,0.7-1.8,0.9c-0.6,0.2-1.1,0.3-1.7,0.3c-0.5,0-1-0.2-1.3-0.5
		c-0.3-0.3-0.5-0.7-0.5-1.3c0-0.6,0.4-1.1,1.1-1.6c0.7-0.5,1.4-0.9,2.2-1l1.1-0.3l0.4-2c-1,0.7-1.9,1.1-2.8,1.1
		c-0.9,0-1.6-0.3-2.2-1c-0.6-0.7-0.9-1.8-0.9-3.3c0-2,0.4-3.7,1.3-5c0.9-1.3,2.1-2,3.6-2c0.8,0,1.7,0.2,2.5,0.6
		c0.9-0.3,1.8-0.5,2.8-0.5l0.5,0c0.1,0.2,0.1,0.5,0.1,0.9c0,1.5-0.5,4.8-1.6,10c-0.2,1.1-0.5,2-1,2.8
		C378.5,411.9,377.9,412.5,377.3,412.9z M373.1,412.3c0,0.3,0.2,0.5,0.6,0.5c0.4,0,0.8-0.2,1.3-0.6c0.5-0.4,0.8-1,1.1-1.6
		c-0.6,0.1-1.2,0.3-1.9,0.6C373.5,411.5,373.1,411.9,373.1,412.3z M376.9,398.7c-0.7,0-1.3,0.6-1.7,1.8s-0.6,2.5-0.6,3.9
		c0,1.4,0.3,2.1,1,2.1c0.4,0,0.9-0.2,1.5-0.5c0.5-2.8,0.8-5.2,1-7C377.5,398.8,377.1,398.7,376.9,398.7z"/>
	<path fill="#5C8E8B" d="M386,408.7c-1.2,0-2.1-0.4-2.7-1.2s-1-2-1-3.4c0-1.9,0.5-3.5,1.5-4.9c1-1.4,2.4-2,4.2-2l0.9,0.1
		c0.3-0.2,0.6-0.2,1-0.2c1.3,0,2,1.3,2,3.8c0.7,0,1.4-0.1,2.1-0.3l0.4-0.1l0.2,1c-0.6,0.2-1.3,0.4-2.3,0.6l-0.5,0.1
		c-0.3,1.8-1,3.3-2,4.6S387.6,408.7,386,408.7z M387.4,406.6c0.7,0,1.4-0.5,1.9-1.4c0.6-0.9,1-1.9,1.2-2.9c-1.8,0-2.7-0.7-2.7-2
		c0-0.5,0.1-1.1,0.3-1.5l0.1-0.3c-0.1,0-0.2-0.1-0.3-0.1s-0.2,0-0.2,0.1c-0.4,0.3-0.8,0.9-1.2,1.9c-0.4,1-0.6,2.1-0.6,3.4
		C386,405.6,386.5,406.6,387.4,406.6z"/>
	<path fill="#5C8E8B" d="M399.4,412.9c-0.6,0.4-1.2,0.7-1.8,0.9c-0.6,0.2-1.1,0.3-1.7,0.3c-0.5,0-1-0.2-1.3-0.5
		c-0.3-0.3-0.5-0.7-0.5-1.3c0-0.6,0.4-1.1,1.1-1.6c0.7-0.5,1.4-0.9,2.2-1l1.1-0.3l0.4-2c-1,0.7-1.9,1.1-2.8,1.1
		c-0.9,0-1.6-0.3-2.2-1c-0.6-0.7-0.9-1.8-0.9-3.3c0-2,0.4-3.7,1.3-5c0.9-1.3,2.1-2,3.6-2c0.8,0,1.7,0.2,2.5,0.6
		c0.9-0.3,1.8-0.5,2.8-0.5l0.5,0c0.1,0.2,0.1,0.5,0.1,0.9c0,1.5-0.5,4.8-1.6,10c-0.2,1.1-0.5,2-1,2.8
		C400.6,411.9,400,412.5,399.4,412.9z M395.3,412.3c0,0.3,0.2,0.5,0.6,0.5c0.4,0,0.8-0.2,1.3-0.6c0.5-0.4,0.8-1,1.1-1.6
		c-0.6,0.1-1.2,0.3-1.9,0.6C395.6,411.5,395.3,411.9,395.3,412.3z M399,398.7c-0.7,0-1.3,0.6-1.7,1.8s-0.6,2.5-0.6,3.9
		c0,1.4,0.3,2.1,1,2.1c0.4,0,0.9-0.2,1.5-0.5c0.5-2.8,0.8-5.2,1-7C399.6,398.8,399.3,398.7,399,398.7z"/>
	<path fill="#5C8E8B" d="M409.9,398.7c0,0.7-0.2,1.9-0.7,3.7c-0.5,1.7-0.7,2.9-0.7,3.4c0,0.5,0.1,0.8,0.2,0.8c0.1,0,0.5-0.2,1.2-0.5
		l0.3-0.2l0.4,0.9c-0.2,0.1-0.4,0.3-0.6,0.5c-0.3,0.2-0.7,0.5-1.4,0.8c-0.7,0.3-1.3,0.5-1.9,0.5c-0.6,0-1.1-0.2-1.4-0.5
		s-0.5-0.9-0.5-1.5c0-0.6,0.2-1.7,0.6-3.3s0.6-2.6,0.6-3.1c0-0.7-0.2-1.4-0.7-2l-0.2-0.3l0-0.3c0.9-0.3,2.4-0.4,4.4-0.4
		C409.8,397.6,409.9,398,409.9,398.7z M407,394.5c-0.3-0.3-0.5-0.8-0.5-1.3c0-0.6,0.2-1.1,0.7-1.5c0.5-0.4,1-0.6,1.6-0.6
		s1.1,0.2,1.4,0.5c0.3,0.3,0.5,0.8,0.5,1.3c0,0.6-0.2,1-0.7,1.5c-0.5,0.4-1,0.6-1.6,0.6C407.8,395,407.3,394.8,407,394.5z"/>
	<path fill="#5C8E8B" d="M416.8,414.1c-0.1-0.2-0.2-0.6-0.2-1.3s0.3-2.4,0.9-5.4c-1.1,0.9-2.1,1.3-2.9,1.3s-1.6-0.4-2.2-1.1
		c-0.6-0.7-0.8-1.8-0.8-3.2c0-2.4,0.5-4.2,1.4-5.4s2.1-1.9,3.4-1.9c0.7,0,1.6,0.2,2.6,0.6c0.8-0.3,1.9-0.5,3.3-0.5
		c0.1,0.3,0.1,0.7,0.1,1c0,1.8-0.3,4.4-1,7.8c-0.7,3.3-1,5.8-1,7.3C419.4,413.8,418.3,414,416.8,414.1z M417.5,398.7
		c-0.6,0-1.2,0.6-1.6,1.7c-0.4,1.1-0.6,2.4-0.6,4c0,1.5,0.3,2.3,1,2.3c0.6,0,1.1-0.2,1.6-0.7c0.6-2.9,0.9-5.2,0.9-7
		C418.2,398.8,417.8,398.7,417.5,398.7z"/>
	<path fill="#5C8E8B" d="M423.7,406.5c0-0.7,0.2-2,0.7-3.7c0.4-1.8,0.7-2.8,0.7-3.2s-0.3-0.9-0.9-1.6l0-0.3c1.2-0.2,2.7-0.4,4.6-0.4
		c0.1,0.2,0.1,0.6,0.1,1.2s-0.2,1.8-0.7,3.7c-0.5,1.9-0.7,3.1-0.7,3.5c0,0.5,0.2,0.7,0.5,0.7c0.5,0,1.1-0.2,1.7-0.5
		c0.1-0.4,0.2-1.2,0.5-2.3c0.6-2.7,0.9-4.7,0.9-5.8c0.6-0.2,1.7-0.4,3.2-0.4h0.5c0,0.8-0.2,2.4-0.7,4.7c-0.5,2.3-0.7,3.7-0.7,4.1
		s0.1,0.6,0.3,0.6c0.1,0,0.6-0.2,1.4-0.6l0.5,0.8c-1.5,1.3-2.8,1.9-4,1.9c-0.5,0-1-0.2-1.4-0.5c-0.4-0.3-0.6-0.7-0.6-1.2
		c-1.4,1.1-2.6,1.7-3.7,1.7c-0.6,0-1.1-0.2-1.5-0.6C423.8,407.8,423.7,407.2,423.7,406.5z"/>
	<path fill="#5C8E8B" d="M436,404c0-2.1,0.6-3.8,1.9-5c1.3-1.2,2.7-1.8,4.4-1.8c1,0,1.8,0.2,2.5,0.7c0.6,0.5,1,1.1,1,2
		s-0.2,1.5-0.6,2.1c-0.4,0.6-0.9,1-1.5,1.3c-1.2,0.6-2.3,1-3.3,1.1l-0.6,0.1c0.1,1.6,0.8,2.4,2,2.4c0.4,0,0.8-0.1,1.3-0.3
		c0.5-0.2,0.8-0.4,1.1-0.6l0.4-0.3l0.6,0.8c-0.1,0.2-0.4,0.4-0.8,0.7c-0.4,0.3-0.8,0.6-1.1,0.8c-1,0.5-2.1,0.8-3.2,0.8
		c-1.2,0-2.1-0.4-2.8-1.2C436.4,406.7,436,405.5,436,404z M441.7,402.1c0.5-0.6,0.8-1.3,0.8-2.2s-0.3-1.4-0.8-1.4
		c-0.6,0-1.1,0.5-1.5,1.6c-0.3,1.1-0.5,2.1-0.5,3.1C440.5,403,441.2,402.7,441.7,402.1z"/>
	<path fill="#5C8E8B" d="M453.3,408.7c-0.6,0-1.1-0.2-1.4-0.5c-0.3-0.4-0.5-0.8-0.5-1.4c0-0.6,0.2-1.1,0.7-1.5
		c0.4-0.4,1-0.6,1.6-0.6s1.1,0.2,1.4,0.5c0.3,0.3,0.5,0.8,0.5,1.4s-0.2,1.1-0.7,1.6C454.4,408.5,453.9,408.7,453.3,408.7z
		 M457.9,391.6c0,1.7-0.6,4.3-1.7,7.9c-0.1,0.3-0.2,0.8-0.5,1.6c-0.2,0.8-0.4,1.3-0.5,1.7c-0.5,0.2-0.9,0.2-1.2,0.2
		c-0.3,0-0.7,0-0.9-0.1c0.6-3.7,0.9-6.9,0.9-9.7l-0.2-2.1c1.4-0.5,2.7-0.7,3.9-0.7C457.9,390.5,457.9,390.9,457.9,391.6z"/>
</g>
</svg>
