<?xml version="1.0" encoding="utf-8"?>
<!-- Generator: Adobe Illustrator 18.1.1, SVG Export Plug-In . SVG Version: 6.00 Build 0)  -->
<svg version="1.1" id="Calque_1" xmlns="http://www.w3.org/2000/svg" xmlns:xlink="http://www.w3.org/1999/xlink" x="0px" y="0px"
	 width="310px" height="280px" viewBox="0 0 310 280" enable-background="new 0 0 310 280" xml:space="preserve">
<symbol  id="ƒÂ_xF8FF_Â_x201A_Ó" viewBox="-29.1 -38.3 58.2 76.5">
	<polygon fill="#80BB2C" points="7.9,-38.3 1.9,-12.6 -0.7,-12.6 -4.6,-38.3 	"/>
	<path fill="#95C12E" d="M29.1-1c0-16.1-13-29.1-29.1-29.1c-16.1,0-29.1,13-29.1,29.1C-29.1,15,0,38.3,0,38.3S29.1,15,29.1-1z"/>
	<path fill="#86BD2D" d="M16.1-2.2C16.1-11,8.9-18.3,0-18.3c-8.9,0-16.1,7.2-16.1,16.1S0,19.6,0,19.6S16.1,6.7,16.1-2.2z"/>
</symbol>
<g>
	<defs>
		<path id="SVGID_1_" d="M276.4,125C276.4,58.8,222.7,5,156.4,5S36.5,58.8,36.5,125c0,25.6,8,49.4,21.7,68.9h196.4
			C268.3,174.4,276.4,150.6,276.4,125z"/>
	</defs>
	<linearGradient id="SVGID_2_" gradientUnits="userSpaceOnUse" x1="156.4265" y1="144.5253" x2="156.4265" y2="10.5851">
		<stop  offset="0" style="stop-color:#FFFFFF"/>
		<stop  offset="1" style="stop-color:#36A9E1;stop-opacity:0.2"/>
	</linearGradient>
	<use xlink:href="#SVGID_1_"  overflow="visible" fill="url(#SVGID_2_)"/>
	<clipPath id="SVGID_3_">
		<use xlink:href="#SVGID_1_"  overflow="visible"/>
	</clipPath>
	<g clip-path="url(#SVGID_3_)">
		<path fill="#BED1D0" d="M247.6,193.9c0.2-1.6,0.3-3.2,0.3-4.8c0-23.2-18.8-42-42-42c-23.2,0-42,18.8-42,42c0,1.6,0.1,3.2,0.3,4.8
			H247.6z"/>
		<polygon fill="#038F74" points="123.3,156.9 87.5,156.9 87.5,137.2 123.3,125.1 		"/>
		<rect x="106.1" y="80.1" fill="#BAD5D3" width="43.6" height="96.8"/>
		<g>
			<rect x="106.4" y="95.8" fill="#98B2B0" width="43.2" height="1.8"/>
			<path fill="#98B2B0" d="M114.9,85.9c0-0.9-0.7-1.7-1.7-1.7c-0.9,0-1.7,0.7-1.7,1.7v5.8h3.3V85.9z"/>
			<path fill="#98B2B0" d="M115.9,102.5c-1.4,0-2.6,1.1-2.6,2.6v8.9h5.1V105C118.5,103.6,117.3,102.5,115.9,102.5z"/>
			<path fill="#98B2B0" d="M127.5,102.5c-1.4,0-2.6,1.1-2.6,2.6v8.9h5.1V105C130,103.6,128.9,102.5,127.5,102.5z"/>
			<path fill="#98B2B0" d="M138.8,102.5c-1.4,0-2.6,1.1-2.6,2.6v8.9h5.1V105C141.4,103.6,140.2,102.5,138.8,102.5z"/>
			<path fill="#98B2B0" d="M115.9,119.3c-1.4,0-2.6,1.1-2.6,2.6v8.9h5.1v-8.9C118.5,120.5,117.3,119.3,115.9,119.3z"/>
			<path fill="#98B2B0" d="M127.5,119.3c-1.4,0-2.6,1.1-2.6,2.6v8.9h5.1v-8.9C130,120.5,128.9,119.3,127.5,119.3z"/>
			<path fill="#98B2B0" d="M138.8,119.3c-1.4,0-2.6,1.1-2.6,2.6v8.9h5.1v-8.9C141.4,120.5,140.2,119.3,138.8,119.3z"/>
			<path fill="#98B2B0" d="M124.5,85.9c0-0.9-0.7-1.7-1.7-1.7c-0.9,0-1.7,0.7-1.7,1.7v5.8h3.3V85.9z"/>
			<path fill="#98B2B0" d="M134,85.9c0-0.9-0.7-1.7-1.7-1.7c-0.9,0-1.7,0.7-1.7,1.7v5.8h3.3V85.9z"/>
			<path fill="#98B2B0" d="M143.5,85.9c0-0.9-0.7-1.7-1.7-1.7c-0.9,0-1.7,0.7-1.7,1.7v5.8h3.3V85.9z"/>
		</g>
		<path fill="#FFCD07" d="M133.2,65l-1.4,0V53.3c0-0.5-0.4-0.9-0.9-0.9h-1.6V40.3c0-0.8-0.6-1.4-1.4-1.4h-0.2
			c-0.8,0-1.4,0.6-1.4,1.4v12.1h-1.8c-0.5,0-0.9,0.4-0.9,0.9v11.5l-0.2,0c-8.3,1.6-15,7.5-17.6,15.4h43.8
			C147.2,72.7,141,66.9,133.2,65z"/>
		<rect x="144.3" y="136.4" fill="#5C8E8B" width="86.2" height="57.1"/>
		<rect x="181.9" y="143.8" fill="#99D3D9" width="45.6" height="46.3"/>
		<polygon fill="#A6D8DE" points="204.7,190.1 181.9,190.1 181.9,143.8 227.4,143.8 		"/>
		<rect x="73.1" y="146.5" fill="#99D3D9" width="103.6" height="14.8"/>
		<rect x="73.1" y="161.3" fill="#71A9A8" width="103.6" height="32"/>
		<rect x="75.4" y="163.3" fill="#70C5CD" width="99" height="28"/>
		<rect x="75.4" y="163.3" fill="#90D0D2" width="41" height="28"/>
		<rect x="140.5" y="135.3" fill="#71A9A8" width="93.9" height="4.4"/>
		<polygon fill="#99D3D9" points="227.5,135.7 230,135.7 230,131.6 231.8,131.6 231.8,114.3 153.6,114.3 153.6,131.6 155.9,131.6 
			155.9,135.7 158.4,135.7 158.4,131.6 227.5,131.6 		"/>
		
			<use xlink:href="#ƒÂ_xF8FF_Â_x201A_Ó"  width="58.2" height="76.5" id="XMLID_4_" x="-29.1" y="-38.3" transform="matrix(0.4815 0 0 -0.4815 73.7962 174.4709)" overflow="visible"/>
		
			<use xlink:href="#ƒÂ_xF8FF_Â_x201A_Ó"  width="58.2" height="76.5" id="XMLID_3_" x="-29.1" y="-38.3" transform="matrix(0.353 0 0 -0.353 101.6488 179.386)" overflow="visible"/>
		<g>
			<path fill="#EE97A7" d="M125.6,189.1c0,0,0.2,0.4,1,0.7c0.8,0.3,2.1,0.4,2.1,0.4l4.2-0.5l3.1,0.5l0.3,0l14.8,0c0,0,0,0,0,0
				l8.7-0.2c0,0,0.6,0,1.5-0.1c0.9-0.2,1.6-1.2,1.6-1.2l0.4-2.6l-0.9-0.9l-0.2,0.1c0,0-0.2-0.3-0.7-0.7c-0.3-0.5-0.8-1.2-1.5-1.9
				c-1.5-1.6-4.7-4-8.8-4.9c-4.1-1-8.2-0.3-10.4,0.5c-2.2,0.9-5.1,3.8-5.1,3.8s-3.4,0.5-5.6,0.9c-1.9,0.4-2.8,1.6-3,1.8
				c-0.6,0.6-1,1.2-1,1.2l-0.7,0.5C125.3,187.3,125.6,189.1,125.6,189.1z M149.4,182.3l0.6-4.2c0,0,1.9,0.2,3.7,1.5
				c1.8,1.3,1.7,2.6,1.7,2.6L149.4,182.3z M137,182.8c0,0,1.3-2.5,4-3.8c3-1.5,7.6-1,7.6-1l-0.5,4.4L137,182.8z"/>
			<path fill="#D98B9C" d="M135.9,190.2l-0.6-0.1l-5.6,0.1l-1-0.1c0,0-0.6-2.7,1.3-4.1c2-1.4,4.4-0.3,5.1,0.9
				C135.9,188.1,135.9,190.2,135.9,190.2z"/>
			<path fill="#D98B9C" d="M160,190l-0.6,0.1l-5.6,0.1l-1-0.1c0,0-0.6-2.7,1.3-4.1c2-1.4,4.4-0.3,5.1,0.9
				C159.9,188.1,160,190,160,190z"/>
			<path fill="#C58291" d="M159.1,183.7c-0.3,0.5,0.2,1.5,1.6,1.7c1.4,0.2,1.6-0.2,1.6-0.2S159.9,182.5,159.1,183.7z"/>
			<path fill="#F3A1A9" d="M151.5,189.1c0,0.1-0.1,0.2-0.2,0.2h-13.7c-0.1,0-0.2-0.1-0.2-0.2l0,0c0-0.1,0.1-0.2,0.2-0.2h13.7
				C151.4,188.8,151.5,188.9,151.5,189.1L151.5,189.1z"/>
			<path fill="#C58291" d="M128.4,185.5c-0.5,0.6-1.1,0.9-1.4,0.7c-0.3-0.2,0-0.9,0.4-1.3c0.4-0.4,1.2-0.8,1.4-0.6
				C129,184.4,128.8,185,128.4,185.5z"/>
			<circle fill="#EE97A7" cx="156.4" cy="189" r="2.5"/>
			<path fill="#C58291" d="M158.8,189.4l0-0.5L157,189c0,0,0,0,0,0c0-0.1,0-0.1,0-0.2l1.6-1l-0.3-0.4l-1.4,1.2
				c0-0.1-0.1-0.1-0.1-0.1l0.8-1.7l-0.5-0.2l-0.4,1.8c0,0-0.1,0-0.1,0c0,0,0,0-0.1,0l-0.3-1.8l-0.5,0.1l0.6,1.8
				c-0.1,0-0.1,0.1-0.2,0.1l-1.3-1.3l-0.3,0.4l1.5,1.1c0,0,0,0.1,0,0.1l-1.9-0.3l0,0.5l1.9-0.1c0,0.1,0,0.1,0,0.1l-1.6,1l0.3,0.4
				l1.4-1.3c0,0,0.1,0.1,0.1,0.1l-0.8,1.7l0.5,0.2l0.5-1.8c0,0,0.1,0,0.1,0c0,0,0,0,0.1,0l0.5,1.8l0.5-0.2l-0.9-1.7
				c0,0,0.1,0,0.1-0.1l1.5,1.2l0.3-0.4l-1.7-0.9c0,0,0-0.1,0-0.1L158.8,189.4z"/>
			<path fill="#C58291" d="M156.3,185.8c-1.7,0-3.1,1.4-3.1,3.1c0,1.7,1.4,3.1,3.1,3.1c1.7,0,3.1-1.4,3.1-3.1
				C159.4,187.2,158,185.8,156.3,185.8z M156.3,191.2c-1.2,0-2.3-1-2.3-2.3c0-1.2,1-2.3,2.3-2.3s2.3,1,2.3,2.3
				C158.6,190.2,157.5,191.2,156.3,191.2z"/>
			<circle fill="#EE97A7" cx="132.3" cy="189" r="2.5"/>
			<path fill="#C58291" d="M134.6,189.4l0-0.5l-1.8,0.1c0,0,0,0,0,0c0-0.1,0-0.1,0-0.2l1.6-1l-0.3-0.4l-1.4,1.2
				c0-0.1-0.1-0.1-0.1-0.1l0.8-1.7l-0.5-0.2l-0.4,1.8c0,0-0.1,0-0.1,0c0,0,0,0-0.1,0l-0.3-1.8l-0.5,0.1l0.6,1.8
				c-0.1,0-0.1,0.1-0.2,0.1l-1.3-1.3l-0.3,0.4l1.5,1.1c0,0,0,0.1,0,0.1l-1.9-0.3l0,0.5l1.9-0.1c0,0.1,0,0.1,0,0.1l-1.6,1l0.3,0.4
				l1.4-1.3c0,0,0.1,0.1,0.1,0.1l-0.8,1.7l0.5,0.2l0.5-1.8c0,0,0.1,0,0.1,0c0,0,0,0,0.1,0l0.5,1.8l0.5-0.2l-0.9-1.7
				c0,0,0.1,0,0.1-0.1l1.5,1.2l0.3-0.4l-1.7-0.9c0,0,0-0.1,0-0.1L134.6,189.4z"/>
			<path fill="#C58291" d="M132.3,185.8c-1.7,0-3.1,1.4-3.1,3.1c0,1.7,1.4,3.1,3.1,3.1c1.7,0,3.1-1.4,3.1-3.1
				C135.4,187.2,134,185.8,132.3,185.8z M132.3,191.2c-1.2,0-2.3-1-2.3-2.3c0-1.2,1-2.3,2.3-2.3c1.2,0,2.3,1,2.3,2.3
				C134.5,190.2,133.5,191.2,132.3,191.2z"/>
		</g>
		<path fill="#5C8E8B" d="M181.7,189.7c0-25.1,21-45.4,46-45.7l0.1-1h-46.4v47.2h0.3C181.7,189.9,181.7,189.8,181.7,189.7z"/>
	</g>
</g>
<g>
	<path fill="#FFCD07" d="M50.3,269.8c-1.5,1.1-3,1.7-4.7,1.7c-1.6,0-3.1-0.2-4.5-0.7c-1.4-0.5-2.8-1.2-4.4-2.2
		c-1.5-1-2.8-1.9-3.9-2.7c-1-0.8-2.4-1.9-4.2-3.4c-1.8-1.5-3-2.5-3.8-3.1c-2.6,2.5-5.6,3.8-8.9,3.8c-2.1,0-3.9-0.5-5.2-1.6
		c-1.4-1.1-2-2.5-2-4.3c0-1.8,0.7-3.3,2.2-4.6c1.4-1.3,3.2-1.9,5.3-1.9s4.1,0.3,6.1,1c1.1-2.5,1.9-5.7,2.5-9.5
		c-1.9,1.2-4,1.7-6.3,1.7c-3.9,0-7.1-1.5-9.6-4.4s-3.7-6.7-3.7-11.4s0.9-9,2.7-13c1.8-4,4.4-7.3,7.8-9.9c3.4-2.6,7.1-3.9,11.2-3.9
		c1.4,0,2.8,0.2,4.1,0.6c3.2-2,6.5-3,9.8-3c3.3,0,5.7,0.8,7.4,2.3c-0.3,1.7-1,3.1-1.8,4c-1.7-1.5-3.7-2.3-5.8-2.3
		c-2.1,0-4.1,0.4-6,1.2c2,2.1,3,4.9,3,8.4c0,2.5-0.4,4.9-1.2,7.3c-0.8,2.4-2.1,4.4-3.8,6c-1.7,1.7-3.6,2.5-5.7,2.5
		c-2.1,0-3.7-0.8-4.8-2.4c-1.1-1.6-1.6-3.7-1.6-6.2c0-5.1,2-9.7,6-14.1c-3.2,0.2-5.8,2.3-7.9,6.1c-2.1,3.9-3.1,8.2-3.1,13
		c0,4.8,0.6,8.1,1.9,9.9c1.3,1.8,2.8,2.7,4.7,2.7c3.2,0,6-2.1,8.6-6.3l5.2,1.2c-1.7,9.5-4.2,16.8-7.3,22c0.6,0.3,2.2,1.3,4.8,2.8
		c2.5,1.5,4.4,2.6,5.5,3.2c1.1,0.6,2.7,1.2,4.8,1.9c2,0.7,3.9,1,5.6,1l2.9-0.2c0.7,1,1.2,1.9,1.5,2.5
		C52.9,267.4,51.8,268.7,50.3,269.8z M15.6,258.3c1.6,0,3-0.8,4.4-2.3c-1.6-0.9-3-1.3-4.3-1.3c-1.9,0-2.8,0.6-2.8,1.9
		c0,0.6,0.3,1,0.8,1.3C14.3,258.1,14.9,258.3,15.6,258.3z M27,224.7c1.8,0,3.2-1.1,4.3-3.4c1.1-2.3,1.7-4.9,1.7-7.9
		c0-3-0.8-5.1-2.5-6.4c-1.9,1.6-3.4,3.6-4.5,6c-1.1,2.3-1.7,4.5-1.7,6.5C24.4,222.9,25.3,224.7,27,224.7z"/>
	<path fill="#FFCD07" d="M39.1,236.4c0-5.4,1.6-9.7,4.9-12.8c3.3-3.1,7-4.7,11.1-4.7c2.5,0,4.6,0.6,6.3,1.9c1.6,1.3,2.5,2.9,2.5,5
		c0,2.1-0.5,3.9-1.6,5.3c-1.1,1.4-2.3,2.5-3.9,3.3c-3.1,1.5-5.9,2.5-8.4,2.9l-1.6,0.2c0.3,4.1,2,6.1,5,6.1c1,0,2.1-0.3,3.3-0.8
		c1.2-0.5,2.1-1,2.7-1.6l1-0.8l1.6,2.1c-0.3,0.5-1,1.1-2.1,1.9c-1,0.8-2,1.4-2.9,1.9c-2.5,1.4-5.2,2.1-8.2,2.1c-3,0-5.3-1.1-7.1-3.2
		C40,243.1,39.1,240.1,39.1,236.4z M53.6,231.4c1.3-1.5,1.9-3.4,1.9-5.7c0-2.3-0.7-3.5-2.1-3.5c-1.6,0-2.9,1.4-3.8,4.2
		c-0.9,2.8-1.3,5.4-1.3,7.8C50.6,233.8,52.3,232.9,53.6,231.4z"/>
	<path fill="#FFCD07" d="M74.3,248.3c-3,0-5.3-1-7-3.1c-1.7-2.1-2.5-5-2.5-8.8c0-4.8,1.3-8.9,3.9-12.4c2.6-3.5,6.1-5.2,10.7-5.2
		l2.3,0.1c0.7-0.4,1.6-0.6,2.5-0.6c3.4,0,5.1,3.2,5.1,9.7c1.8-0.1,3.6-0.3,5.4-0.7l1-0.3l0.4,2.5c-1.4,0.6-3.3,1.1-5.8,1.6l-1.3,0.3
		c-0.8,4.5-2.5,8.5-5,11.8C81.4,246.7,78.2,248.3,74.3,248.3z M77.8,242.8c1.8,0,3.4-1.2,4.9-3.5c1.4-2.3,2.5-4.8,3-7.4
		c-4.6,0-6.9-1.7-6.9-5.2c0-1.4,0.3-2.7,0.8-3.9l0.3-0.6c-0.2-0.1-0.4-0.1-0.6-0.1s-0.5,0-0.6,0.1c-1.1,0.7-2.1,2.3-3,4.9
		c-1,2.5-1.4,5.5-1.4,8.7C74.2,240.4,75.4,242.8,77.8,242.8z"/>
	<path fill="#FFCD07" d="M110.6,219.6c-0.1,1-0.5,2.2-1.2,3.8c-1.6-0.2-3.3-0.3-4.9-0.3h-0.3c-0.9,10.7-1.7,18.6-2.5,23.7
		c-0.8,5.1-1.8,8.7-3,10.7c-1.6,0-3.2-0.2-4.8-0.6c-1.7-0.4-2.8-0.7-3.4-1.1c1-3.2,2.1-8,3.1-14.5c1.1-6.4,1.7-12.4,2-17.8
		c-1.2,0.1-2.5,0.2-4,0.5c-0.1-0.6-0.2-1.1-0.2-1.7c0-0.6,0.1-1.4,0.3-2.6h4.1c0.1-3.8,0.3-6.6,0.6-8.6c0.5-3.5,1.7-6.2,3.6-8.1
		c1.9-2,4.3-2.9,7.3-2.9c1.9,0,3.4,0.4,4.5,1.3c1.1,0.8,1.7,2.2,1.7,4c0,1.8-0.8,4.2-2.5,7c-1.6,2.9-3.8,5.3-6.5,7.4H110.6z
		 M108.7,210.8c0.9-1.7,1.4-3.3,1.4-4.7c0-1.4-0.5-2.1-1.4-2.1c-1.9,0-3.1,2.2-3.6,6.5c-0.2,1.5-0.3,3.1-0.4,5
		C106.4,214.1,107.7,212.6,108.7,210.8z"/>
	<path fill="#FFCD07" d="M111.2,242.7c0-1.8,0.6-5,1.7-9.5c1.1-4.5,1.7-7.2,1.7-8.2c0-1-0.8-2.4-2.3-4.1l0.1-0.8
		c2.9-0.6,6.8-0.9,11.6-0.9c0.2,0.6,0.3,1.6,0.3,3c0,1.5-0.6,4.6-1.8,9.4c-1.2,4.8-1.8,7.8-1.8,8.9c0,1.2,0.4,1.8,1.3,1.8
		c1.3,0,2.7-0.5,4.3-1.4c0.2-1,0.6-3,1.3-6c1.6-6.9,2.3-11.9,2.3-14.8c1.5-0.6,4.2-0.9,8.2-0.9h1.2c0,2-0.6,6-1.8,11.9
		c-1.2,5.9-1.8,9.4-1.8,10.4c0,1,0.2,1.5,0.6,1.5c0.3,0,1.5-0.5,3.7-1.6l1.2,2.1c-3.8,3.2-7.2,4.8-10.1,4.8c-1.4,0-2.6-0.4-3.5-1.2
		c-1-0.8-1.5-1.8-1.7-3c-3.5,2.9-6.7,4.3-9.5,4.3c-1.5,0-2.8-0.5-3.7-1.5C111.7,245.9,111.2,244.5,111.2,242.7z"/>
	<path fill="#FFCD07" d="M144.8,247.8h-1.2c0-2,0.6-5.9,1.8-11.7c1.2-5.7,1.8-9,1.8-9.8c0-1.4-0.6-2.9-1.8-4.5l-0.6-0.8l0.1-0.8
		c2.3-0.6,6.1-1,11.2-1c0.6,0.7,0.9,2.1,0.9,4c3.8-2.9,6.9-4.3,9.5-4.3c1.6,0,2.8,0.5,3.7,1.6c0.9,1.1,1.4,2.4,1.4,4.1
		c0,1.6-0.5,4.4-1.5,8.4c-1,4-1.5,6.6-1.5,8c0,1.4,0.2,2,0.5,2c0.3,0,1.2-0.4,2.7-1.2l0.8-0.4l1.2,2.3c-0.4,0.3-0.9,0.8-1.6,1.3
		c-0.6,0.5-1.8,1.2-3.6,2.1c-1.7,0.9-3.3,1.3-4.7,1.3c-3.2,0-4.7-1.8-4.7-5.4c0-1.5,0.5-4.3,1.5-8.4c1-4.1,1.5-6.7,1.5-7.8
		s-0.4-1.7-1.1-1.7c-1.3,0-2.8,0.5-4.6,1.6c-0.1,0.7-0.6,2.7-1.3,5.8c-1.5,6.8-2.3,11.6-2.3,14.4
		C151.4,247.5,148.7,247.8,144.8,247.8z"/>
</g>
<g>
	<path fill="#5C8E8B" d="M63.6,261.4c0-0.2,0-0.4-0.1-0.5c-0.1-0.1-0.2-0.3-0.4-0.5l0-0.1c0.7-0.4,1.5-0.6,2.5-0.6
		c0.4,0,0.7,0,0.9,0.1c0.1,0.1,0.1,0.4,0.1,0.8s-0.3,1.8-0.9,4.3c0.3,0.1,0.6,0.2,0.9,0.2c0.6,0,1.1-0.2,1.5-0.6s0.6-0.9,0.8-1.4
		c0.1-0.5,0.2-1,0.2-1.5c0-1-0.3-1.7-0.8-2.2c-0.5-0.4-1.4-0.7-2.6-0.7c-1.6,0-2.9,0.3-3.9,0.9c-1,0.6-1.5,1.3-1.5,2
		c0,0.4,0.1,0.6,0.4,0.9c0.3,0.2,0.6,0.4,0.8,0.4c-0.1,0.5-0.2,0.9-0.5,1.4c-0.5-0.1-0.9-0.3-1.4-0.8c-0.4-0.4-0.7-1-0.7-1.7
		c0-1.3,0.7-2.3,2.2-3.1c1.4-0.8,3.1-1.2,5-1.2c1.9,0,3.4,0.3,4.3,1c1,0.6,1.5,1.6,1.5,3c0,1.8-0.7,3.1-2.1,4
		c-0.8,0.5-1.7,0.7-2.7,0.7c-0.7,0-1.2-0.1-1.7-0.3c-0.5,2.2-0.9,3.9-1,5.2c-0.7,0.2-1.6,0.3-2.5,0.3c-0.2,0-0.4,0-0.5-0.1
		c0.1-0.8,0.4-2.4,1.1-5C63.2,263.8,63.6,262.2,63.6,261.4z"/>
	<path fill="#5C8E8B" d="M77.2,263.4c0,0,0.1-0.2,0.2-0.5c0.6,0,1.4,0.2,2.4,0.5c-0.3,1-0.6,2.1-0.8,3.3c-0.2,1.1-0.3,2-0.3,2.4
		c0,0.5,0.1,0.7,0.2,0.7c0.1,0,0.4-0.1,0.8-0.4l0.2-0.1l0.3,0.7c-0.1,0.1-0.3,0.2-0.4,0.4c-0.2,0.2-0.5,0.4-1,0.6
		c-0.5,0.3-1,0.4-1.4,0.4c-0.8,0-1.2-0.4-1.4-1.1c-0.8,0.7-1.5,1.1-2.2,1.1c-0.6,0-1.2-0.3-1.6-0.8c-0.4-0.5-0.7-1.3-0.7-2.4
		c0-1.7,0.3-3,1-4s1.5-1.5,2.5-1.5C75.9,262.9,76.5,263,77.2,263.4z M75,269.8c0.3,0,0.6-0.1,1-0.4c0.1-1.8,0.4-3.5,0.9-5.3
		c-0.4-0.2-0.7-0.2-1-0.2c-0.5,0-0.8,0.4-1.2,1.3c-0.3,0.9-0.5,1.9-0.5,2.9C74.3,269.3,74.6,269.8,75,269.8z"/>
	<path fill="#5C8E8B" d="M81,271.3h-0.1c0-0.1,0-0.3,0-0.7c0-0.4,0.2-1.3,0.5-2.9c0.3-1.6,0.5-2.5,0.5-2.7c0-0.4-0.2-0.8-0.5-1.3
		l-0.2-0.2l0-0.2c0.7-0.2,1.8-0.3,3.3-0.3c0.2,0.3,0.2,0.8,0.2,1.4c0.1-0.2,0.4-0.5,0.9-0.9c0.4-0.4,0.9-0.6,1.4-0.6
		c0.7,0,1,0.6,1,1.8c-0.1,0.1-0.1,0.2-0.3,0.3c-0.1,0.1-0.3,0.3-0.6,0.5c-0.3,0.2-0.6,0.3-0.9,0.4c0,0-0.1-0.2-0.3-0.5
		c-0.2-0.3-0.4-0.5-0.5-0.5c-0.3,0.1-0.6,0.3-0.8,0.6c-0.6,2.6-0.9,4.3-0.9,5.1c0,0.3,0,0.5,0,0.6C83.2,271.2,82.3,271.3,81,271.3z"
		/>
	<path fill="#5C8E8B" d="M91.9,263.8c-0.5,0-0.9,0.4-1.2,1.3c-0.3,0.8-0.5,1.7-0.5,2.7c0,1.5,0.5,2.3,1.4,2.3c0.3,0,0.6-0.1,1-0.2
		c0.3-0.1,0.6-0.3,0.8-0.4l0.3-0.2l0.4,0.6c-0.1,0.1-0.3,0.3-0.6,0.5c-0.3,0.2-0.6,0.4-0.9,0.6c-0.3,0.2-0.6,0.3-1,0.4
		c-0.4,0.1-0.8,0.2-1.2,0.2c-1,0-1.7-0.3-2.2-1c-0.5-0.6-0.7-1.5-0.7-2.6c0-1.5,0.4-2.7,1.2-3.6c0.8-0.9,1.9-1.4,3.2-1.4
		c0.8,0,1.5,0.2,2,0.6c0.5,0.4,0.7,0.9,0.7,1.4c0,0.6-0.2,1-0.5,1.4c-0.3,0-0.7-0.1-1.1-0.2c-0.4-0.1-0.7-0.3-0.9-0.5l0.3-1.7
		C92.2,263.8,92.1,263.8,91.9,263.8z"/>
	<path fill="#5C8E8B" d="M97.7,271.4c-0.9,0-1.5-0.3-2-0.9c-0.5-0.6-0.7-1.5-0.7-2.6c0-1.4,0.4-2.6,1.1-3.6c0.7-1,1.8-1.5,3.1-1.5
		l0.7,0c0.2-0.1,0.5-0.2,0.7-0.2c1,0,1.5,0.9,1.5,2.8c0.5,0,1-0.1,1.6-0.2l0.3-0.1l0.1,0.7c-0.4,0.2-1,0.3-1.7,0.5l-0.4,0.1
		c-0.2,1.3-0.7,2.5-1.5,3.4C99.7,271,98.8,271.4,97.7,271.4z M98.7,269.8c0.5,0,1-0.3,1.4-1c0.4-0.7,0.7-1.4,0.9-2.2
		c-1.3,0-2-0.5-2-1.5c0-0.4,0.1-0.8,0.2-1.1l0.1-0.2c-0.1,0-0.1,0-0.2,0c-0.1,0-0.1,0-0.2,0c-0.3,0.2-0.6,0.7-0.9,1.4
		c-0.3,0.7-0.4,1.6-0.4,2.6C97.6,269.1,98,269.8,98.7,269.8z"/>
	<path fill="#5C8E8B" d="M102.7,269.8c0-0.5,0.2-1.5,0.5-2.8c0.3-1.3,0.5-2.1,0.5-2.4c0-0.3-0.2-0.7-0.7-1.2l0-0.2
		c0.9-0.2,2-0.3,3.4-0.3c0.1,0.2,0.1,0.5,0.1,0.9s-0.2,1.3-0.5,2.7c-0.4,1.4-0.5,2.3-0.5,2.6c0,0.3,0.1,0.5,0.4,0.5
		c0.4,0,0.8-0.1,1.3-0.4c0.1-0.3,0.2-0.9,0.4-1.7c0.5-2,0.7-3.5,0.7-4.3c0.4-0.2,1.2-0.3,2.4-0.3h0.4c0,0.6-0.2,1.7-0.5,3.5
		c-0.4,1.7-0.5,2.7-0.5,3c0,0.3,0.1,0.4,0.2,0.4c0.1,0,0.4-0.2,1.1-0.5l0.4,0.6c-1.1,0.9-2.1,1.4-2.9,1.4c-0.4,0-0.7-0.1-1-0.3
		c-0.3-0.2-0.4-0.5-0.5-0.9c-1,0.8-1.9,1.2-2.8,1.2c-0.4,0-0.8-0.1-1.1-0.4C102.8,270.7,102.7,270.3,102.7,269.8z"/>
	<path fill="#5C8E8B" d="M112.4,271.3h-0.1c0-0.1,0-0.3,0-0.7c0-0.4,0.2-1.3,0.5-2.9c0.3-1.6,0.5-2.5,0.5-2.7c0-0.4-0.2-0.8-0.5-1.3
		l-0.2-0.2l0-0.2c0.7-0.2,1.8-0.3,3.3-0.3c0.2,0.3,0.2,0.8,0.2,1.4c0.1-0.2,0.4-0.5,0.9-0.9c0.4-0.4,0.9-0.6,1.4-0.6
		c0.7,0,1,0.6,1,1.8c-0.1,0.1-0.1,0.2-0.3,0.3c-0.1,0.1-0.3,0.3-0.6,0.5c-0.3,0.2-0.6,0.3-0.9,0.4c0,0-0.1-0.2-0.3-0.5
		c-0.2-0.3-0.4-0.5-0.5-0.5c-0.3,0.1-0.6,0.3-0.8,0.6c-0.6,2.6-0.9,4.3-0.9,5.1c0,0.3,0,0.5,0,0.6
		C114.5,271.2,113.7,271.3,112.4,271.3z"/>
	<path fill="#5C8E8B" d="M125,268.7c0,0.8-0.3,1.4-1,1.9c-0.7,0.5-1.5,0.8-2.4,0.8c-0.9,0-1.6-0.2-2.1-0.6c-0.5-0.4-0.8-0.7-0.8-1
		c0-0.2,0.2-0.5,0.7-0.9c0.4-0.4,0.8-0.6,1.1-0.7c0.6,0.5,1.1,1.2,1.5,2.2c0.5,0,0.7-0.3,0.7-0.7c0-0.6-0.5-1.4-1.5-2.5
		c-1-1.1-1.5-1.9-1.5-2.5s0.3-1.1,0.9-1.5c0.6-0.3,1.3-0.5,2.1-0.5c0.8,0,1.4,0.1,1.8,0.4c0.4,0.3,0.6,0.7,0.6,1.2
		c0,0.5-0.4,1.2-1.2,2c0.1,0.1,0.2,0.2,0.3,0.3c0.1,0.1,0.3,0.4,0.5,0.8C124.9,268,125,268.4,125,268.7z M124,264.4
		c0-0.4-0.3-0.7-0.9-0.7c-0.3,0-0.5,0.1-0.7,0.2c-0.2,0.1-0.3,0.3-0.3,0.4c0,0.3,0.3,0.7,0.8,1.2l0.3,0.2
		C123.7,265.3,124,264.9,124,264.4z"/>
	<path fill="#5C8E8B" d="M131.1,271.4c-0.4,0-0.8-0.1-1.1-0.4c-0.3-0.3-0.4-0.7-0.4-1.2c0-0.5,0.3-2.2,0.9-5
		c0.6-2.8,0.9-4.8,0.9-6.1l-0.1-0.8c1-0.3,1.9-0.5,2.8-0.5c0.1,0.2,0.2,0.5,0.2,0.9c0,1-0.3,3-1,5.8c-0.6,2.9-1,4.6-1,5
		s0.1,0.7,0.2,0.7l1.3-0.5l0.3,0.7c-0.4,0.3-0.9,0.7-1.6,0.9C132.1,271.3,131.5,271.4,131.1,271.4z"/>
	<path fill="#5C8E8B" d="M134.8,269.8c0-0.5,0.2-1.5,0.5-2.8c0.3-1.3,0.5-2.1,0.5-2.4c0-0.3-0.2-0.7-0.7-1.2l0-0.2
		c0.9-0.2,2-0.3,3.4-0.3c0.1,0.2,0.1,0.5,0.1,0.9s-0.2,1.3-0.5,2.7c-0.4,1.4-0.5,2.3-0.5,2.6c0,0.3,0.1,0.5,0.4,0.5
		c0.4,0,0.8-0.1,1.3-0.4c0.1-0.3,0.2-0.9,0.4-1.7c0.5-2,0.7-3.5,0.7-4.3c0.4-0.2,1.2-0.3,2.4-0.3h0.4c0,0.6-0.2,1.7-0.5,3.5
		c-0.4,1.7-0.5,2.7-0.5,3c0,0.3,0.1,0.4,0.2,0.4c0.1,0,0.4-0.2,1.1-0.5l0.4,0.6c-1.1,0.9-2.1,1.4-2.9,1.4c-0.4,0-0.7-0.1-1-0.3
		c-0.3-0.2-0.4-0.5-0.5-0.9c-1,0.8-1.9,1.2-2.8,1.2c-0.4,0-0.8-0.1-1.1-0.4C135,270.7,134.8,270.3,134.8,269.8z"/>
	<path fill="#5C8E8B" d="M153.1,270.1c-1.1,0.9-2,1.4-2.8,1.4c-0.8,0-1.3-0.4-1.4-1.2c-0.4,0.4-0.8,0.7-1.3,0.9
		c-0.5,0.2-0.9,0.3-1.2,0.3c-0.6,0-1.1-0.3-1.5-0.8c-0.4-0.5-0.6-1.3-0.6-2.5c0-1.7,0.4-3,1.1-3.9c0.7-1,1.5-1.4,2.4-1.4
		c0.9,0,1.6,0.2,2.2,0.6c0.4-2,0.6-3.6,0.6-4.8l-0.1-0.8c0.9-0.3,1.9-0.5,2.8-0.5c0.1,0.2,0.2,0.5,0.2,0.7c0,0.9-0.3,2.8-0.8,5.6
		s-0.8,4.7-0.8,5.7c0,0.3,0.1,0.5,0.2,0.5c0.1,0,0.3-0.1,0.7-0.4l0.2-0.1L153.1,270.1z M148.5,264c-0.4,0-0.8,0.4-1.1,1.3
		c-0.3,0.9-0.5,1.7-0.5,2.6c0,0.9,0.1,1.4,0.2,1.6c0.1,0.2,0.3,0.4,0.5,0.4c0.4,0,0.8-0.2,1.2-0.5c0-0.5,0.3-2.2,0.9-5
		C149.2,264.1,148.9,264,148.5,264z"/>
	<path fill="#5C8E8B" d="M157.5,264c0,0.5-0.2,1.4-0.5,2.7c-0.3,1.3-0.5,2.1-0.5,2.5c0,0.4,0.1,0.6,0.2,0.6c0.1,0,0.4-0.1,0.9-0.4
		l0.2-0.1l0.3,0.7c-0.1,0.1-0.3,0.2-0.5,0.4c-0.2,0.2-0.5,0.4-1.1,0.6c-0.5,0.3-1,0.4-1.4,0.4c-0.4,0-0.8-0.1-1-0.4
		c-0.3-0.3-0.4-0.6-0.4-1.1c0-0.5,0.2-1.3,0.5-2.5c0.3-1.2,0.5-1.9,0.5-2.3c0-0.5-0.2-1-0.5-1.5l-0.2-0.2l0-0.2
		c0.7-0.2,1.8-0.3,3.3-0.3C157.4,263.1,157.5,263.5,157.5,264z M155.3,260.9c-0.3-0.2-0.4-0.6-0.4-1c0-0.4,0.2-0.8,0.5-1.1
		c0.3-0.3,0.7-0.5,1.2-0.5s0.8,0.1,1.1,0.4c0.3,0.3,0.4,0.6,0.4,1c0,0.4-0.2,0.8-0.5,1.1c-0.4,0.3-0.8,0.5-1.2,0.5
		C155.9,261.2,155.6,261.1,155.3,260.9z"/>
	<path fill="#5C8E8B" d="M162.7,275.5c-0.1-0.2-0.1-0.5-0.1-0.9s0.2-1.8,0.7-4c-0.8,0.6-1.5,1-2.2,1c-0.7,0-1.2-0.3-1.6-0.8
		c-0.4-0.5-0.6-1.3-0.6-2.4c0-1.8,0.4-3.1,1.1-4s1.5-1.4,2.5-1.4c0.5,0,1.2,0.1,1.9,0.4c0.6-0.2,1.4-0.3,2.4-0.3
		c0,0.2,0.1,0.5,0.1,0.8c0,1.4-0.2,3.3-0.7,5.8c-0.5,2.5-0.7,4.3-0.7,5.5C164.6,275.2,163.7,275.4,162.7,275.5z M163.2,264
		c-0.5,0-0.9,0.4-1.2,1.3c-0.3,0.8-0.5,1.8-0.5,2.9c0,1.1,0.2,1.7,0.7,1.7c0.4,0,0.8-0.2,1.2-0.5c0.4-2.2,0.6-3.9,0.6-5.2
		C163.7,264,163.4,264,163.2,264z"/>
	<path fill="#5C8E8B" d="M167.7,269.8c0-0.5,0.2-1.5,0.5-2.8c0.3-1.3,0.5-2.1,0.5-2.4c0-0.3-0.2-0.7-0.7-1.2l0-0.2
		c0.9-0.2,2-0.3,3.4-0.3c0.1,0.2,0.1,0.5,0.1,0.9s-0.2,1.3-0.5,2.7c-0.4,1.4-0.5,2.3-0.5,2.6c0,0.3,0.1,0.5,0.4,0.5
		c0.4,0,0.8-0.1,1.3-0.4c0.1-0.3,0.2-0.9,0.4-1.7c0.5-2,0.7-3.5,0.7-4.3c0.4-0.2,1.2-0.3,2.4-0.3h0.4c0,0.6-0.2,1.7-0.5,3.5
		c-0.4,1.7-0.5,2.7-0.5,3c0,0.3,0.1,0.4,0.2,0.4c0.1,0,0.4-0.2,1.1-0.5l0.4,0.6c-1.1,0.9-2.1,1.4-2.9,1.4c-0.4,0-0.7-0.1-1-0.3
		c-0.3-0.2-0.4-0.5-0.5-0.9c-1,0.8-1.9,1.2-2.8,1.2c-0.4,0-0.8-0.1-1.1-0.4C167.9,270.7,167.7,270.3,167.7,269.8z"/>
	<path fill="#5C8E8B" d="M176.9,268c0-1.6,0.5-2.8,1.4-3.7c1-0.9,2-1.4,3.2-1.4c0.7,0,1.4,0.2,1.8,0.5c0.5,0.4,0.7,0.9,0.7,1.5
		c0,0.6-0.2,1.1-0.5,1.5c-0.3,0.4-0.7,0.7-1.1,1c-0.9,0.4-1.7,0.7-2.5,0.8l-0.5,0.1c0.1,1.2,0.6,1.8,1.5,1.8c0.3,0,0.6-0.1,1-0.2
		c0.3-0.2,0.6-0.3,0.8-0.5l0.3-0.2l0.5,0.6c-0.1,0.1-0.3,0.3-0.6,0.5c-0.3,0.2-0.6,0.4-0.9,0.6c-0.7,0.4-1.5,0.6-2.4,0.6
		c-0.9,0-1.6-0.3-2.1-0.9C177.2,269.9,176.9,269,176.9,268z M181.2,266.5c0.4-0.4,0.6-1,0.6-1.7c0-0.7-0.2-1-0.6-1
		c-0.5,0-0.8,0.4-1.1,1.2c-0.3,0.8-0.4,1.6-0.4,2.3C180.3,267.2,180.8,266.9,181.2,266.5z"/>
	<path fill="#5C8E8B" d="M188.3,268c0-1.6,0.5-2.8,1.4-3.7c1-0.9,2-1.4,3.2-1.4c0.7,0,1.4,0.2,1.8,0.5c0.5,0.4,0.7,0.9,0.7,1.5
		c0,0.6-0.2,1.1-0.5,1.5c-0.3,0.4-0.7,0.7-1.1,1c-0.9,0.4-1.7,0.7-2.5,0.8l-0.5,0.1c0.1,1.2,0.6,1.8,1.5,1.8c0.3,0,0.6-0.1,1-0.2
		c0.3-0.2,0.6-0.3,0.8-0.5l0.3-0.2l0.5,0.6c-0.1,0.1-0.3,0.3-0.6,0.5c-0.3,0.2-0.6,0.4-0.9,0.6c-0.7,0.4-1.5,0.6-2.4,0.6
		c-0.9,0-1.6-0.3-2.1-0.9C188.5,269.9,188.3,269,188.3,268z M192.5,266.5c0.4-0.4,0.6-1,0.6-1.7c0-0.7-0.2-1-0.6-1
		c-0.5,0-0.8,0.4-1.1,1.2c-0.3,0.8-0.4,1.6-0.4,2.3C191.6,267.2,192.1,266.9,192.5,266.5z"/>
	<path fill="#5C8E8B" d="M201.8,263.1c0,0.3-0.1,0.7-0.3,1.1c-0.5-0.1-0.9-0.1-1.4-0.1h-0.3c-0.6,2.8-0.9,4.6-0.9,5.3
		c0,0.4,0.1,0.5,0.2,0.5s0.6-0.2,1.3-0.5l0.3,0.6c-1.1,0.9-2.2,1.4-3.1,1.4c-0.4,0-0.8-0.1-1.1-0.4c-0.3-0.3-0.4-0.6-0.4-1.1
		c0-0.5,0.1-1,0.2-1.6c0.1-0.6,0.3-1.3,0.4-2.1c0.2-0.8,0.3-1.5,0.4-2c-0.5,0-0.8,0.1-1,0.1c0-0.2,0-0.4,0-0.6c0-0.3,0-0.5,0.1-0.6
		h1.2c0.1-0.7,0.2-1.3,0.2-1.9l0-0.6v-0.1c1-0.3,1.9-0.5,2.8-0.5c0.1,0.3,0.1,0.6,0.1,0.9c0,0.4-0.1,1.1-0.3,2.1H201.8z"/>
	<path fill="#5C8E8B" d="M204.7,275.5c-0.1-0.2-0.1-0.5-0.1-1s0.2-1.9,0.7-4.2c0.5-2.3,0.7-4,0.7-5.2c0-0.2-0.1-0.5-0.2-0.8
		c-0.1-0.3-0.2-0.5-0.4-0.6l-0.2-0.2l0-0.2c0.6-0.2,1.6-0.3,3.1-0.3c0.1,0.3,0.2,0.6,0.3,1.1c1-0.8,1.8-1.2,2.4-1.2s1.2,0.3,1.6,0.8
		c0.4,0.5,0.6,1.3,0.6,2.4c0,1.8-0.3,3.2-1,4.1c-0.7,0.9-1.5,1.3-2.5,1.3c-0.5,0-1-0.1-1.3-0.2l-0.2-0.1l0.1-0.7c0.1,0,0.2,0,0.4,0
		c0.3,0,0.6-0.2,0.9-0.5c0.2-0.3,0.4-0.7,0.6-1.2c0.3-0.9,0.4-1.8,0.4-2.6c0-1.1-0.2-1.7-0.7-1.7c-0.4,0-0.8,0.1-1.2,0.4
		c-0.1,0.9-0.3,2.4-0.8,4.6c-0.5,2.2-0.7,4-0.7,5.3C206.6,275.2,205.8,275.4,204.7,275.5z"/>
	<path fill="#5C8E8B" d="M214.2,268c0-1.6,0.5-2.8,1.4-3.7c1-0.9,2-1.4,3.2-1.4c0.7,0,1.4,0.2,1.8,0.5c0.5,0.4,0.7,0.9,0.7,1.5
		c0,0.6-0.2,1.1-0.5,1.5c-0.3,0.4-0.7,0.7-1.1,1c-0.9,0.4-1.7,0.7-2.5,0.8l-0.5,0.1c0.1,1.2,0.6,1.8,1.5,1.8c0.3,0,0.6-0.1,1-0.2
		c0.3-0.2,0.6-0.3,0.8-0.5l0.3-0.2l0.5,0.6c-0.1,0.1-0.3,0.3-0.6,0.5c-0.3,0.2-0.6,0.4-0.9,0.6c-0.7,0.4-1.5,0.6-2.4,0.6
		c-0.9,0-1.6-0.3-2.1-0.9C214.4,269.9,214.2,269,214.2,268z M221.5,259.6c0,0.4-0.2,0.6-0.7,0.9c-0.6,0.3-2.2,0.7-4.6,1.3l-0.3-0.8
		c1.2-0.6,2.3-1.2,3.2-1.9c1-0.6,1.5-1,1.8-1.2c0.1,0.2,0.3,0.5,0.4,0.8C221.4,259.1,221.5,259.4,221.5,259.6z M218.4,266.5
		c0.4-0.4,0.6-1,0.6-1.7c0-0.7-0.2-1-0.6-1c-0.5,0-0.8,0.4-1.1,1.2c-0.3,0.8-0.4,1.6-0.4,2.3C217.5,267.2,218,266.9,218.4,266.5z"/>
	<path fill="#5C8E8B" d="M230.8,270.1c-1.1,0.9-2,1.4-2.8,1.4c-0.8,0-1.3-0.4-1.4-1.2c-0.4,0.4-0.8,0.7-1.3,0.9
		c-0.5,0.2-0.9,0.3-1.2,0.3c-0.6,0-1.1-0.3-1.5-0.8c-0.4-0.5-0.6-1.3-0.6-2.5c0-1.7,0.4-3,1.1-3.9c0.7-1,1.5-1.4,2.4-1.4
		c0.9,0,1.6,0.2,2.2,0.6c0.4-2,0.6-3.6,0.6-4.8l-0.1-0.8c0.9-0.3,1.9-0.5,2.8-0.5c0.1,0.2,0.2,0.5,0.2,0.7c0,0.9-0.3,2.8-0.8,5.6
		c-0.6,2.8-0.8,4.7-0.8,5.7c0,0.3,0.1,0.5,0.2,0.5c0.1,0,0.3-0.1,0.7-0.4l0.2-0.1L230.8,270.1z M226.2,264c-0.4,0-0.8,0.4-1.1,1.3
		c-0.3,0.9-0.5,1.7-0.5,2.6c0,0.9,0.1,1.4,0.2,1.6c0.1,0.2,0.3,0.4,0.5,0.4c0.4,0,0.8-0.2,1.2-0.5c0-0.5,0.3-2.2,0.9-5
		C226.9,264.1,226.5,264,226.2,264z"/>
	<path fill="#5C8E8B" d="M236.9,263.4c0,0,0.1-0.2,0.2-0.5c0.6,0,1.4,0.2,2.4,0.5c-0.3,1-0.6,2.1-0.8,3.3s-0.3,2-0.3,2.4
		c0,0.5,0.1,0.7,0.2,0.7c0.1,0,0.4-0.1,0.8-0.4l0.2-0.1l0.3,0.7c-0.1,0.1-0.3,0.2-0.4,0.4c-0.2,0.2-0.5,0.4-1,0.6
		c-0.5,0.3-1,0.4-1.4,0.4c-0.8,0-1.2-0.4-1.4-1.1c-0.8,0.7-1.5,1.1-2.2,1.1s-1.2-0.3-1.6-0.8c-0.4-0.5-0.7-1.3-0.7-2.4
		c0-1.7,0.3-3,1-4c0.7-1,1.5-1.5,2.5-1.5C235.6,262.9,236.3,263,236.9,263.4z M234.8,269.8c0.3,0,0.6-0.1,1-0.4
		c0.1-1.8,0.4-3.5,0.9-5.3c-0.4-0.2-0.7-0.2-1-0.2c-0.5,0-0.8,0.4-1.2,1.3c-0.3,0.9-0.5,1.9-0.5,2.9
		C234.1,269.3,234.3,269.8,234.8,269.8z"/>
	<path fill="#5C8E8B" d="M245.2,274.5c-0.5,0.3-0.9,0.5-1.3,0.7c-0.4,0.1-0.8,0.2-1.2,0.2c-0.4,0-0.7-0.1-1-0.3
		c-0.3-0.2-0.4-0.6-0.4-1c0-0.4,0.3-0.8,0.8-1.2c0.5-0.4,1.1-0.6,1.6-0.8l0.8-0.2l0.3-1.5c-0.7,0.6-1.4,0.8-2.1,0.8
		c-0.7,0-1.2-0.3-1.6-0.8c-0.4-0.5-0.6-1.3-0.6-2.5c0-1.5,0.3-2.7,1-3.7c0.7-1,1.5-1.5,2.6-1.5c0.6,0,1.2,0.2,1.8,0.5
		c0.6-0.2,1.3-0.3,2.1-0.3l0.4,0c0,0.2,0.1,0.4,0.1,0.6c0,1.1-0.4,3.6-1.2,7.5c-0.1,0.8-0.4,1.5-0.8,2.1
		C246.1,273.8,245.7,274.2,245.2,274.5z M242.1,274.1c0,0.2,0.1,0.4,0.4,0.4c0.3,0,0.6-0.2,0.9-0.5c0.3-0.3,0.6-0.7,0.8-1.2
		c-0.4,0.1-0.9,0.2-1.4,0.5C242.4,273.5,242.1,273.8,242.1,274.1z M244.9,264c-0.5,0-1,0.4-1.3,1.3s-0.5,1.8-0.5,2.9
		c0,1.1,0.2,1.6,0.7,1.6c0.3,0,0.7-0.1,1.1-0.4c0.4-2.1,0.6-3.9,0.8-5.2C245.4,264,245.1,264,244.9,264z"/>
	<path fill="#5C8E8B" d="M251.7,271.4c-0.9,0-1.5-0.3-2-0.9c-0.5-0.6-0.7-1.5-0.7-2.6c0-1.4,0.4-2.6,1.1-3.6c0.7-1,1.8-1.5,3.1-1.5
		l0.7,0c0.2-0.1,0.5-0.2,0.7-0.2c1,0,1.5,0.9,1.5,2.8c0.5,0,1-0.1,1.6-0.2l0.3-0.1l0.1,0.7c-0.4,0.2-1,0.3-1.7,0.5l-0.4,0.1
		c-0.2,1.3-0.7,2.5-1.5,3.4S252.9,271.4,251.7,271.4z M252.7,269.8c0.5,0,1-0.3,1.4-1c0.4-0.7,0.7-1.4,0.9-2.2c-1.3,0-2-0.5-2-1.5
		c0-0.4,0.1-0.8,0.2-1.1l0.1-0.2c-0.1,0-0.1,0-0.2,0s-0.1,0-0.2,0c-0.3,0.2-0.6,0.7-0.9,1.4c-0.3,0.7-0.4,1.6-0.4,2.6
		C251.7,269.1,252,269.8,252.7,269.8z"/>
	<path fill="#5C8E8B" d="M261.7,274.5c-0.5,0.3-0.9,0.5-1.3,0.7c-0.4,0.1-0.8,0.2-1.2,0.2c-0.4,0-0.7-0.1-1-0.3
		c-0.3-0.2-0.4-0.6-0.4-1c0-0.4,0.3-0.8,0.8-1.2c0.5-0.4,1.1-0.6,1.6-0.8l0.8-0.2l0.3-1.5c-0.7,0.6-1.4,0.8-2.1,0.8
		c-0.7,0-1.2-0.3-1.6-0.8c-0.4-0.5-0.6-1.3-0.6-2.5c0-1.5,0.3-2.7,1-3.7c0.7-1,1.5-1.5,2.6-1.5c0.6,0,1.2,0.2,1.8,0.5
		c0.6-0.2,1.3-0.3,2.1-0.3l0.4,0c0,0.2,0.1,0.4,0.1,0.6c0,1.1-0.4,3.6-1.2,7.5c-0.1,0.8-0.4,1.5-0.8,2.1
		C262.5,273.8,262.1,274.2,261.7,274.5z M258.6,274.1c0,0.2,0.1,0.4,0.4,0.4c0.3,0,0.6-0.2,0.9-0.5c0.3-0.3,0.6-0.7,0.8-1.2
		c-0.4,0.1-0.9,0.2-1.4,0.5C258.8,273.5,258.6,273.8,258.6,274.1z M261.3,264c-0.5,0-1,0.4-1.3,1.3s-0.5,1.8-0.5,2.9
		c0,1.1,0.2,1.6,0.7,1.6c0.3,0,0.7-0.1,1.1-0.4c0.4-2.1,0.6-3.9,0.8-5.2C261.8,264,261.5,264,261.3,264z"/>
	<path fill="#5C8E8B" d="M269.4,264c0,0.5-0.2,1.4-0.5,2.7c-0.3,1.3-0.5,2.1-0.5,2.5c0,0.4,0.1,0.6,0.2,0.6c0.1,0,0.4-0.1,0.9-0.4
		l0.2-0.1l0.3,0.7c-0.1,0.1-0.3,0.2-0.5,0.4c-0.2,0.2-0.5,0.4-1.1,0.6c-0.5,0.3-1,0.4-1.4,0.4c-0.4,0-0.8-0.1-1-0.4
		c-0.3-0.3-0.4-0.6-0.4-1.1c0-0.5,0.2-1.3,0.5-2.5c0.3-1.2,0.5-1.9,0.5-2.3c0-0.5-0.2-1-0.5-1.5l-0.2-0.2l0-0.2
		c0.7-0.2,1.8-0.3,3.3-0.3C269.3,263.1,269.4,263.5,269.4,264z M267.3,260.9c-0.3-0.2-0.4-0.6-0.4-1c0-0.4,0.2-0.8,0.5-1.1
		c0.3-0.3,0.7-0.5,1.2-0.5c0.5,0,0.8,0.1,1.1,0.4c0.3,0.3,0.4,0.6,0.4,1c0,0.4-0.2,0.8-0.5,1.1c-0.4,0.3-0.8,0.5-1.2,0.5
		C267.9,261.2,267.5,261.1,267.3,260.9z"/>
	<path fill="#5C8E8B" d="M274.6,275.5c-0.1-0.2-0.1-0.5-0.1-0.9s0.2-1.8,0.7-4c-0.8,0.6-1.5,1-2.2,1s-1.2-0.3-1.6-0.8
		c-0.4-0.5-0.6-1.3-0.6-2.4c0-1.8,0.4-3.1,1.1-4s1.5-1.4,2.5-1.4c0.5,0,1.2,0.1,1.9,0.4c0.6-0.2,1.4-0.3,2.4-0.3
		c0,0.2,0.1,0.5,0.1,0.8c0,1.4-0.2,3.3-0.7,5.8c-0.5,2.5-0.7,4.3-0.7,5.5C276.5,275.2,275.7,275.4,274.6,275.5z M275.1,264
		c-0.5,0-0.9,0.4-1.2,1.3c-0.3,0.8-0.5,1.8-0.5,2.9c0,1.1,0.2,1.7,0.7,1.7c0.4,0,0.8-0.2,1.2-0.5c0.4-2.2,0.6-3.9,0.6-5.2
		C275.6,264,275.3,264,275.1,264z"/>
	<path fill="#5C8E8B" d="M279.7,269.8c0-0.5,0.2-1.5,0.5-2.8c0.3-1.3,0.5-2.1,0.5-2.4c0-0.3-0.2-0.7-0.7-1.2l0-0.2
		c0.9-0.2,2-0.3,3.4-0.3c0.1,0.2,0.1,0.5,0.1,0.9s-0.2,1.3-0.5,2.7c-0.4,1.4-0.5,2.3-0.5,2.6c0,0.3,0.1,0.5,0.4,0.5
		c0.4,0,0.8-0.1,1.3-0.4c0.1-0.3,0.2-0.9,0.4-1.7c0.5-2,0.7-3.5,0.7-4.3c0.4-0.2,1.2-0.3,2.4-0.3h0.4c0,0.6-0.2,1.7-0.5,3.5
		c-0.4,1.7-0.5,2.7-0.5,3c0,0.3,0.1,0.4,0.2,0.4c0.1,0,0.4-0.2,1.1-0.5l0.4,0.6c-1.1,0.9-2.1,1.4-2.9,1.4c-0.4,0-0.7-0.1-1-0.3
		c-0.3-0.2-0.4-0.5-0.5-0.9c-1,0.8-1.9,1.2-2.8,1.2c-0.4,0-0.8-0.1-1.1-0.4C279.8,270.7,279.7,270.3,279.7,269.8z"/>
	<path fill="#5C8E8B" d="M288.9,268c0-1.6,0.5-2.8,1.4-3.7c1-0.9,2-1.4,3.2-1.4c0.7,0,1.4,0.2,1.8,0.5c0.5,0.4,0.7,0.9,0.7,1.5
		c0,0.6-0.2,1.1-0.5,1.5c-0.3,0.4-0.7,0.7-1.1,1c-0.9,0.4-1.7,0.7-2.5,0.8l-0.5,0.1c0.1,1.2,0.6,1.8,1.5,1.8c0.3,0,0.6-0.1,1-0.2
		c0.3-0.2,0.6-0.3,0.8-0.5l0.3-0.2l0.5,0.6c-0.1,0.1-0.3,0.3-0.6,0.5c-0.3,0.2-0.6,0.4-0.9,0.6c-0.7,0.4-1.5,0.6-2.4,0.6
		c-0.9,0-1.6-0.3-2.1-0.9C289.1,269.9,288.9,269,288.9,268z M293.1,266.5c0.4-0.4,0.6-1,0.6-1.7c0-0.7-0.2-1-0.6-1
		c-0.5,0-0.8,0.4-1.1,1.2c-0.3,0.8-0.4,1.6-0.4,2.3C292.2,267.2,292.7,266.9,293.1,266.5z"/>
	<path fill="#5C8E8B" d="M301.7,271.4c-0.4,0-0.8-0.1-1-0.4c-0.2-0.3-0.4-0.6-0.4-1.1c0-0.4,0.2-0.8,0.5-1.1
		c0.3-0.3,0.7-0.5,1.2-0.5s0.8,0.1,1,0.4c0.2,0.3,0.4,0.6,0.4,1c0,0.4-0.2,0.8-0.5,1.2C302.6,271.3,302.2,271.4,301.7,271.4z
		 M305.1,258.7c0,1.2-0.4,3.2-1.2,5.9c-0.1,0.2-0.2,0.6-0.3,1.2c-0.2,0.6-0.3,1-0.4,1.3c-0.3,0.1-0.6,0.2-0.9,0.2
		c-0.3,0-0.5,0-0.7,0c0.5-2.7,0.7-5.1,0.7-7.2l-0.1-1.6c1.1-0.3,2-0.5,2.9-0.5C305.1,257.9,305.1,258.2,305.1,258.7z"/>
</g>
</svg>
